<?xml version="1.0" encoding="utf-8"?>
<!-- Generator: Adobe Illustrator 26.3.1, SVG Export Plug-In . SVG Version: 6.00 Build 0)  -->
<svg version="1.1" id="Layer_1" xmlns="http://www.w3.org/2000/svg" xmlns:xlink="http://www.w3.org/1999/xlink" x="0px" y="0px"
	 viewBox="0 0 512 512" style="enable-background:new 0 0 512 512;" xml:space="preserve">
<style type="text/css">
	.st0{fill:#3B3B3B;}
</style>
<path class="st0" d="M380.6,365.6c20.5,14.3,35.4,38.7,35.4,66.4c0,44.2-35.8,80-80,80s-80-35.8-80-80c0-8.4,1.3-16.6,3.7-24.2
	L114.1,280.4c-10.3,4.9-21.9,7.6-34.1,7.6c-44.2,0-80-35.8-80-80s35.8-80,80-80c21.9,0,41.7,8.8,56.2,23.1L320,77.5
	c1.3-43,36.6-77.5,80-77.5c44.2,0,80,35.8,80,80c0,37.9-26.3,69.6-61.6,77.9L380.6,365.6z M156.3,232.2l145.6,127.4
	c5-2.3,10.2-4.2,15.7-5.5l37.8-207.7c-4.2-2.8-8-6-11.6-9.5l-184.7,73.6C159.7,218,158.5,225.3,156.3,232.2L156.3,232.2z"/>
</svg>
