<?xml version="1.0" encoding="utf-8"?>
<!-- Generator: Adobe Illustrator 26.3.1, SVG Export Plug-In . SVG Version: 6.00 Build 0)  -->
<svg version="1.1" id="Layer_1" xmlns="http://www.w3.org/2000/svg" xmlns:xlink="http://www.w3.org/1999/xlink" x="0px" y="0px"
	 viewBox="0 0 512 512" style="enable-background:new 0 0 512 512;" xml:space="preserve">
<style type="text/css">
	.st0{fill:#3B3B3B;}
	.st1{fill:#D5A940;}
</style>
<path class="st0" d="M224,0C100.3,0,0,35.8,0,80v48c0,44.2,100.3,80,224,80s224-35.8,224-80V80C448,35.8,347.7,0,224,0z"/>
<path class="st1" d="M412.9,244.7c66.2,3,75,55.6,70.8,106.9c15.7,0,28.3,11.9,28.3,26.7v106.9c0,14.8-12.7,26.7-28.3,26.7H342
	c-15.7,0-28.3-11.9-28.3-26.7V378.3c0-14.8,12.7-26.7,28.3-26.7C337.9,300.3,346.7,247.7,412.9,244.7z M412.9,284.8
	c-37.4,0.7-27.1,44-28.3,66.8h56.7C439.9,328.8,450.2,285.4,412.9,284.8z"/>
<g>
	<path class="st0" d="M326.3,343.4c-4.6-55.9,11.3-107.3,84.7-110.5c14.8,0.7,27,3.5,37,8.1v-54.8C383.5,230,313.5,237.5,224,240
		c-89.2-2.5-160.1-10-224-53.9V288c0,44.2,100.3,80,224,80c29,0,54.4-1.7,79.9-5.2C305.2,351.9,315.3,343.4,326.3,343.4z"/>
</g>
<path class="st0" d="M301.1,494.7v-99.4c-24.1,2.6-49.7,3.8-77.1,4.6c-89.2-2.5-160.1-10-224-53.9V432c0,44.2,100.3,80,224,80
	c28.1,0,55-1.9,79.9-5.2C302.1,503.1,301.1,499,301.1,494.7z"/>
</svg>
