<?xml version="1.0" encoding="utf-8"?>
<!-- Generator: Adobe Illustrator 26.3.1, SVG Export Plug-In . SVG Version: 6.00 Build 0)  -->
<svg version="1.1" id="Layer_1" xmlns="http://www.w3.org/2000/svg" xmlns:xlink="http://www.w3.org/1999/xlink" x="0px" y="0px"
	 viewBox="0 0 512 512" style="enable-background:new 0 0 512 512;" xml:space="preserve">
<style type="text/css">
	.st0{fill:#3B3B3B;}
</style>
<path class="st0" d="M448,80v48c0,44.2-100.3,80-224,80S0,172.2,0,128V80C0,35.8,100.3,0,224,0S448,35.8,448,80z M393.2,214.7
	c19.9-7.4,39.9-16.9,54.8-28.6V288c0,44.2-100.3,80-224,80S0,332.2,0,288V186.1c14.9,11.7,34,21.2,54.8,28.6
	C99.7,230.7,159.5,240,224,240S348.3,230.7,393.2,214.7L393.2,214.7z M54.8,374.7C99.7,390.7,159.5,400,224,400
	s124.3-9.3,169.2-25.3c19.9-7.4,39.9-16.9,54.8-28.6V432c0,44.2-100.3,80-224,80S0,476.2,0,432v-85.9
	C14.9,357.8,34,367.3,54.8,374.7z"/>
</svg>
