<?xml version="1.0" encoding="utf-8"?>
<!-- Generator: Adobe Illustrator 26.3.1, SVG Export Plug-In . SVG Version: 6.00 Build 0)  -->
<svg version="1.1" id="Layer_1" xmlns="http://www.w3.org/2000/svg" xmlns:xlink="http://www.w3.org/1999/xlink" x="0px" y="0px"
	 viewBox="0 0 512 512" style="enable-background:new 0 0 512 512;" xml:space="preserve">
<style type="text/css">
	.st0{fill:#3B3B3B;}
	.st1{fill:#E9624E;}
</style>
<g>
	<path class="st0" d="M224,208c123.7,0,224-35.8,224-80V80c0-44.2-100.3-80-224-80S0,35.8,0,80v48C0,172.2,100.3,208,224,208z"/>
	<path class="st0" d="M243.6,399.7c-6.5,0.2-13,0.3-19.6,0.3c-64.5,0-124.3-9.3-169.2-25.3C34,367.3,14.9,357.8,0,346.1V432
		c0,44.2,100.3,80,224,80c29.1,0,57-2,82.5-5.6C271.5,482.7,247.5,444.1,243.6,399.7z"/>
	<path class="st0" d="M224,368c6.8,0,13.6-0.1,20.3-0.3C253.7,297.3,314.1,243,387,243c21.8,0,42.5,4.9,61,13.5v-70.4
		c-14.9,11.7-34.9,21.2-54.8,28.6C348.3,230.7,288.5,240,224,240s-124.3-9.3-169.2-25.3C34,207.3,14.9,197.8,0,186.1V288
		C0,332.2,100.3,368,224,368z"/>
</g>
<path class="st1" d="M387,262c-69,0-125,56-125,125s56,125,125,125s125-56,125-125S456,262,387,262z M442.6,400.1H331.4
	c-7.6,0-13.9-5.5-13.9-13.9c0-6.9,6.2-13.9,13.9-13.9h41.7h27.8h36.6h5c7.6,0,13.9,7,13.9,13.9C456.4,394.6,450.2,400.1,442.6,400.1
	z"/>
</svg>
