<?xml version="1.0" encoding="utf-8"?>
<!-- Generator: Adobe Illustrator 26.3.1, SVG Export Plug-In . SVG Version: 6.00 Build 0)  -->
<svg version="1.1" id="Layer_1" xmlns="http://www.w3.org/2000/svg" xmlns:xlink="http://www.w3.org/1999/xlink" x="0px" y="0px"
	 viewBox="0 0 512 512" style="enable-background:new 0 0 512 512;" xml:space="preserve">
<style type="text/css">
	.st0{fill:#3C5F4B;}
	.st1{fill:#3B3B3B;}
</style>
<path class="st0" d="M262,387c0-69,56-125,125-125s125,56,125,125s-56,125-125,125S262,456,262,387z M400.9,330.7
	c0-6.9-6.2-13.9-13.9-13.9s-13.9,7-13.9,13.9v41.7h-41.7c-7.6,0-13.9,7-13.9,13.9c0,8.4,6.3,13.9,13.9,13.9h41.7v41.7
	c0,8.4,6.2,13.9,13.9,13.9s13.9-5.5,13.9-13.9v-41.7h41.7c7.6,0,13.9-5.5,13.9-13.9c0-6.9-6.3-13.9-13.9-13.9h-41.7V330.7z"/>
<g>
	<path class="st1" d="M224,208c123.7,0,224-35.8,224-80V80c0-44.2-100.3-80-224-80S0,35.8,0,80v48C0,172.2,100.3,208,224,208z"/>
	<path class="st1" d="M243.6,399.7c-6.5,0.2-13,0.3-19.6,0.3c-64.5,0-124.3-9.3-169.2-25.3C34,367.3,14.9,357.8,0,346.1V432
		c0,44.2,100.3,80,224,80c29.1,0,57-2,82.5-5.6C271.5,482.7,247.5,444.1,243.6,399.7z"/>
	<path class="st1" d="M224,368c6.8,0,13.6-0.1,20.3-0.3C253.7,297.3,314.1,243,387,243c21.8,0,42.5,4.9,61,13.5v-70.4
		c-14.9,11.7-34.9,21.2-54.8,28.6C348.3,230.7,288.5,240,224,240s-124.3-9.3-169.2-25.3C34,207.3,14.9,197.8,0,186.1V288
		C0,332.2,100.3,368,224,368z"/>
</g>
</svg>
