<?xml version="1.0" encoding="utf-8"?>
<!-- Generator: Adobe Illustrator 26.3.1, SVG Export Plug-In . SVG Version: 6.00 Build 0)  -->
<svg version="1.1" id="Layer_1" xmlns="http://www.w3.org/2000/svg" xmlns:xlink="http://www.w3.org/1999/xlink" x="0px" y="0px"
	 viewBox="0 0 640 640" style="enable-background:new 0 0 640 640;" xml:space="preserve">
<style type="text/css">
	.st0{fill:#3B3B3B;}
</style>
<path class="st0" d="M359.6,561.4c-12.9,2.1-26.1,3.2-39.6,3.2s-26.7-1.1-39.6-3.2L243,603.9c-13.6,13.4-30.8,18.9-47.3,11.9
	c-10-4.4-19.9-9.2-29.3-14.5l-10.2-5.9c-9.5-7.5-18.5-12-27.4-18.7c-14.4-10.9-19.1-30-13.4-47.2l17.6-54.1
	c-16.8-20.5-30.3-43.8-39.7-69.2l-54.9-13.2C20.6,390.7,6.6,377,4.3,359c-1.5-12.8-2.3-25.8-2.3-39s0.8-26.2,2.3-39
	c2.3-18,16.3-33.5,33.9-35.6l54.9-13.2c9.5-23.7,22.9-47,39.7-67.5l-17.6-54.1c-5.7-17.2-0.9-36.3,13.4-47.2
	c8.9-6.7,18.2-14.7,27.6-18.9l10-5.7c9.5-5.4,17.6-10.1,29.3-14.5c16.5-7.1,33.7-1.5,47.3,11.9l37.5,42.4
	c12.9-2.1,26.1-3.2,39.6-3.2s26.7,1.1,39.6,3.2L397,36.1c11.9-13.4,29.1-18.9,47.3-11.9c10,4.4,19.9,9.2,29.3,14.5l10,5.7
	c9.5,4.2,18.7,12.2,27.6,18.9c14.4,10.9,19.1,30,13.4,47.2l-17.6,54.1c16.8,20.5,30.3,43.8,39.7,67.5l54.9,13.2
	c17.6,2.1,31.6,17.6,33.9,35.6c1.5,12.8,2.3,25.8,2.3,39s-0.8,26.2-2.3,39c-2.3,18-16.3,31.7-33.9,33.8L546.9,406
	c-9.5,25.4-22.9,48.7-39.7,69.2l17.6,54.1c5.7,17.2,0.9,36.3-13.4,47.2c-8.9,6.7-18,11.3-27.4,18.7l-10.2,5.9
	c-9.5,5.4-21,10.1-29.3,14.5c-18.2,7.1-35.4,1.5-47.3-11.9L359.6,561.4z M410.8,320c0-50.7-40.7-91.8-90.8-91.8
	s-90.8,41.1-90.8,91.8s40.7,91.8,90.8,91.8S410.8,370.7,410.8,320z"/>
</svg>
