<?xml version="1.0" encoding="utf-8"?>
<!-- Generator: Adobe Illustrator 26.3.1, SVG Export Plug-In . SVG Version: 6.00 Build 0)  -->
<!DOCTYPE svg PUBLIC "-//W3C//DTD SVG 1.1//EN" "http://www.w3.org/Graphics/SVG/1.1/DTD/svg11.dtd" [
	<!ENTITY ns_extend "http://ns.adobe.com/Extensibility/1.0/">
	<!ENTITY ns_ai "http://ns.adobe.com/AdobeIllustrator/10.0/">
	<!ENTITY ns_graphs "http://ns.adobe.com/Graphs/1.0/">
	<!ENTITY ns_vars "http://ns.adobe.com/Variables/1.0/">
	<!ENTITY ns_imrep "http://ns.adobe.com/ImageReplacement/1.0/">
	<!ENTITY ns_sfw "http://ns.adobe.com/SaveForWeb/1.0/">
	<!ENTITY ns_custom "http://ns.adobe.com/GenericCustomNamespace/1.0/">
	<!ENTITY ns_adobe_xpath "http://ns.adobe.com/XPath/1.0/">
]>
<svg version="1.1" id="Layer_1" xmlns:x="&ns_extend;" xmlns:i="&ns_ai;" xmlns:graph="&ns_graphs;"
	 xmlns="http://www.w3.org/2000/svg" xmlns:xlink="http://www.w3.org/1999/xlink" x="0px" y="0px" viewBox="0 0 2560 512"
	 style="enable-background:new 0 0 2560 512;" xml:space="preserve">
<style type="text/css">
	.st0{fill:#3B3B3B;}
	.st1{fill:#FFCC00;}
	.st2{fill:#DF3123;}
	.st3{fill-opacity:0.8;}
	.st4{fill-opacity:0.1;}
	.st5{fill:#0073BB;}
</style>
<metadata>
	<sfw  xmlns="&ns_sfw;">
		<slices></slices>
		<sliceSourceBounds  bottomLeftOrigin="true" height="16475.7" width="3990.9" x="-1981.1" y="-8029"></sliceSourceBounds>
	</sfw>
</metadata>
<g>
	<path class="st0" d="M869.9,360.7l18.2-32.9c2.2-3.9,5.4-7.1,9.3-9.3c11-6.1,24.7-2.6,31.6,7.9l0.9,1.5l80.9,146
		c8-5.8,13.2-15.3,13.2-25.9V320c0-17.6-14.4-32-32-32H544c-17.6,0-32,14.4-32,32v128c0,17.6,14.4,32,32,32h260.3
		c0.2-0.7,0.5-1.3,0.8-1.9l0.8-1.5l41.7-75.2"/>
	<path class="st0" d="M992,32H544c-17.6,0-32,14.4-32,32v128c0,17.6,14.4,32,32,32h448c17.6,0,32-14.4,32-32V64
		C1024,46.4,1009.6,32,992,32z M864,152c-13.2,0-24-10.8-24-24s10.8-24,24-24s24,10.8,24,24S877.3,152,864,152z M928,152
		c-13.2,0-24-10.8-24-24s10.8-24,24-24s24,10.8,24,24S941.3,152,928,152z"/>
</g>
<g>
	<path class="st1" d="M898.2,337.9c9.8-5.4,22-2.4,28.1,7l0.8,1.3l73.4,132.5c5.7,10.3,2,23.2-8.3,28.9c-2.7,1.5-5.7,2.4-8.8,2.6
		l-1.5,0.1H835.2c-11.8,0-21.3-9.5-21.3-21.3c0-3.1,0.7-6.2,2-9l0.7-1.4l73.4-132.5C891.8,342.7,894.7,339.9,898.2,337.9z
		 M908.5,463c-5.2-0.2-9.6,3.9-9.7,9.1c-0.2,5.2,3.9,9.6,9.1,9.7c0.2,0,0.4,0,0.6,0c5.2-0.2,9.3-4.5,9.1-9.7
		C917.5,467.1,913.5,463.1,908.5,463z M908.5,387.3c-4.8,0-8.8,3.6-9.4,8.4l0,1.1V444l0.1,1.1c0.6,5.2,5.3,8.9,10.5,8.3
		c4.4-0.5,7.8-3.9,8.3-8.3l0.1-1.1v-47.3l-0.1-1.1C917.4,390.8,913.3,387.3,908.5,387.3L908.5,387.3z"/>
</g>
<path class="st0" d="M1504,32h-448c-17.6,0-32,14.4-32,32v128c0,17.6,14.4,32,32,32h448c17.6,0,32-14.4,32-32V64
	C1536,46.4,1521.6,32,1504,32z M1376,152c-13.2,0-24-10.8-24-24s10.8-24,24-24c13.2,0,24,10.8,24,24S1389.3,152,1376,152z M1440,152
	c-13.2,0-24-10.8-24-24s10.8-24,24-24c13.2,0,24,10.8,24,24S1453.3,152,1440,152z"/>
<path class="st0" d="M1336,420.9c0-57.4,46.6-104,104-104c43.2,0,80.3,26.4,96,64V320c0-17.6-14.4-32-32-32h-448
	c-17.6,0-32,14.4-32,32v128c0,17.6,14.4,32,32,32h298.4C1342.8,463.2,1336,442.9,1336,420.9z"/>
<g>
	<path class="st2" d="M1348.6,421.1c0-50.5,40.9-91.4,91.4-91.4s91.4,40.9,91.4,91.4s-40.9,91.4-91.4,91.4
		S1348.6,471.6,1348.6,421.1z M1477.3,383.9c-2.5-2.5-6.7-2.5-9.2,0l-28,28l-28-28c-2.5-2.6-6.6-2.7-9.2-0.2
		c-2.6,2.5-2.7,6.6-0.2,9.2c0.1,0.1,0.1,0.1,0.2,0.2l28,28l-28,28c-2.6,2.5-2.7,6.6-0.2,9.2s6.6,2.7,9.2,0.2
		c0.1-0.1,0.1-0.1,0.2-0.2l28-28l28,28c2.6,2.5,6.7,2.4,9.2-0.2c2.4-2.5,2.4-6.5,0-9.1l-28-28l28-28
		C1479.8,390.6,1479.8,386.4,1477.3,383.9z"/>
</g>
<path class="st0" d="M2016,32h-448c-17.6,0-32,14.4-32,32v128c0,17.6,14.4,32,32,32h448c17.6,0,32-14.4,32-32V64
	C2048,46.4,2033.6,32,2016,32z M1888,152c-13.2,0-24-10.8-24-24s10.8-24,24-24c13.2,0,24,10.8,24,24S1901.3,152,1888,152z M1952,152
	c-13.2,0-24-10.8-24-24s10.8-24,24-24c13.2,0,24,10.8,24,24S1965.3,152,1952,152z"/>
<path class="st0" d="M1848,420.9c0-57.4,46.6-104,104-104c43.2,0,80.3,26.4,96,64V320c0-17.6-14.4-32-32-32h-448
	c-17.6,0-32,14.4-32,32v128c0,17.6,14.4,32,32,32h298.4C1854.8,463.2,1848,442.9,1848,420.9z"/>
<path class="st0" d="M480,288H32c-17.6,0-32,14.4-32,32v128c0,17.6,14.4,32,32,32h448c17.6,0,32-14.4,32-32V320
	C512,302.4,497.6,288,480,288z M352,408c-13.2,0-24-10.8-24-24s10.8-24,24-24s24,10.8,24,24S365.3,408,352,408z M416,408
	c-13.2,0-24-10.8-24-24s10.8-24,24-24s24,10.8,24,24S429.3,408,416,408z M480,32H32C14.4,32,0,46.4,0,64v128c0,17.6,14.4,32,32,32
	h448c17.6,0,32-14.4,32-32V64C512,46.4,497.6,32,480,32z M352,152c-13.2,0-24-10.8-24-24s10.8-24,24-24s24,10.8,24,24
	S365.3,152,352,152z M416,152c-13.2,0-24-10.8-24-24s10.8-24,24-24s24,10.8,24,24S429.3,152,416,152z"/>
<path class="st3" d="M2301.5,32c-121.6,0-220.2,98.6-220.2,220.2s98.6,220.2,220.2,220.2s220.2-98.6,220.2-220.2
	S2423.2,32,2301.5,32z M2301.5,435.1c-101,0-182.8-81.9-182.8-182.8s81.9-182.8,182.8-182.8s182.8,81.9,182.8,182.8
	S2402.5,435.1,2301.5,435.1z"/>
<path class="st4" d="M2301.5,69.4c-101,0-182.8,81.9-182.8,182.8s81.9,182.8,182.8,182.8s182.8-81.9,182.8-182.8
	S2402.5,69.4,2301.5,69.4z M2388.3,319.9l-14.1,19.2c-1.3,1.7-3.7,2.1-5.5,0.8c0,0,0,0,0,0l-81.3-59.3c-1-0.7-1.6-1.9-1.6-3.2V142.1
	c0-2.2,1.8-3.9,3.9-3.9h23.6c2.2,0,3.9,1.8,3.9,3.9v121.7l70.1,50.7C2389.2,315.7,2389.6,318.1,2388.3,319.9L2388.3,319.9z"/>
<path class="st3" d="M2387.4,314.4l-70.1-50.7V142.1c0-2.2-1.8-3.9-3.9-3.9h-23.6c-2.2,0-3.9,1.8-3.9,3.9v135.3
	c0,1.3,0.6,2.5,1.6,3.2l81.3,59.3c1.8,1.3,4.2,0.9,5.5-0.8l14.1-19.2C2389.6,318.1,2389.2,315.7,2387.4,314.4L2387.4,314.4z"/>
<g>
	<path class="st5" d="M1860.6,420.1c0,50.5,40.9,91.4,91.4,91.4s91.4-40.9,91.4-91.4s-40.9-91.4-91.4-91.4
		S1860.6,369.6,1860.6,420.1z M1961.5,374.4c0,5.3-4.3,9.5-9.5,9.5s-9.5-4.3-9.5-9.5c0-5.3,4.3-9.5,9.5-9.5
		S1961.5,369.1,1961.5,374.4z M1952,397.2c4.2,0,7.6,3.4,7.6,7.6v60.9c0,4.2-3.4,7.6-7.6,7.6s-7.6-3.4-7.6-7.6v-60.9
		C1944.4,400.7,1947.8,397.2,1952,397.2z"/>
</g>
</svg>
