<?xml version="1.0" encoding="utf-8"?>
<!-- Generator: Adobe Illustrator 26.3.1, SVG Export Plug-In . SVG Version: 6.00 Build 0)  -->
<svg version="1.1" id="Layer_1" xmlns="http://www.w3.org/2000/svg" xmlns:xlink="http://www.w3.org/1999/xlink" x="0px" y="0px"
	 viewBox="0 0 512 512" style="enable-background:new 0 0 512 512;" xml:space="preserve">
<style type="text/css">
	.st0{fill:#3B3B3B;}
</style>
<path class="st0" d="M480,288H32c-17.6,0-32,14.4-32,32v128c0,17.6,14.4,32,32,32h448c17.6,0,32-14.4,32-32V320
	C512,302.4,497.6,288,480,288z M352,408c-13.2,0-24-10.8-24-24s10.8-24,24-24s24,10.8,24,24S365.3,408,352,408z M416,408
	c-13.2,0-24-10.8-24-24s10.8-24,24-24s24,10.8,24,24S429.3,408,416,408z M480,32H32C14.4,32,0,46.4,0,64v128c0,17.6,14.4,32,32,32
	h448c17.6,0,32-14.4,32-32V64C512,46.4,497.6,32,480,32z M352,152c-13.2,0-24-10.8-24-24s10.8-24,24-24s24,10.8,24,24
	S365.3,152,352,152z M416,152c-13.2,0-24-10.8-24-24s10.8-24,24-24s24,10.8,24,24S429.3,152,416,152z"/>
</svg>
