<?xml version="1.0" encoding="utf-8"?>
<!-- Generator: Adobe Illustrator 26.3.1, SVG Export Plug-In . SVG Version: 6.00 Build 0)  -->
<!DOCTYPE svg PUBLIC "-//W3C//DTD SVG 1.1//EN" "http://www.w3.org/Graphics/SVG/1.1/DTD/svg11.dtd" [
	<!ENTITY ns_extend "http://ns.adobe.com/Extensibility/1.0/">
	<!ENTITY ns_ai "http://ns.adobe.com/AdobeIllustrator/10.0/">
	<!ENTITY ns_graphs "http://ns.adobe.com/Graphs/1.0/">
	<!ENTITY ns_vars "http://ns.adobe.com/Variables/1.0/">
	<!ENTITY ns_imrep "http://ns.adobe.com/ImageReplacement/1.0/">
	<!ENTITY ns_sfw "http://ns.adobe.com/SaveForWeb/1.0/">
	<!ENTITY ns_custom "http://ns.adobe.com/GenericCustomNamespace/1.0/">
	<!ENTITY ns_adobe_xpath "http://ns.adobe.com/XPath/1.0/">
]>
<svg version="1.1" id="Layer_1" xmlns:x="&ns_extend;" xmlns:i="&ns_ai;" xmlns:graph="&ns_graphs;"
	 xmlns="http://www.w3.org/2000/svg" xmlns:xlink="http://www.w3.org/1999/xlink" x="0px" y="0px" viewBox="0 0 512 512"
	 style="enable-background:new 0 0 512 512;" xml:space="preserve">
<style type="text/css">
	.st0{fill:#3B3B3B;}
	.st1{fill:#C9B000;}
</style>
<metadata>
	<sfw  xmlns="&ns_sfw;">
		<slices></slices>
		<sliceSourceBounds  bottomLeftOrigin="true" height="479.2" width="512" x="0" y="0.8"></sliceSourceBounds>
	</sfw>
</metadata>
<g>
	<path class="st0" d="M357.9,360.7l18.2-32.9c2.2-3.9,5.4-7.1,9.3-9.3c11-6.1,24.7-2.6,31.6,7.9l0.9,1.5l80.9,146
		c8-5.8,13.2-15.3,13.2-25.9V320c0-17.6-14.4-32-32-32H32c-17.6,0-32,14.4-32,32v128c0,17.6,14.4,32,32,32h260.3
		c0.2-0.7,0.5-1.3,0.8-1.9l0.8-1.5l41.7-75.2"/>
	<path class="st0" d="M480,32H32C14.4,32,0,46.4,0,64v128c0,17.6,14.4,32,32,32h448c17.6,0,32-14.4,32-32V64
		C512,46.4,497.6,32,480,32z M352,152c-13.2,0-24-10.8-24-24s10.8-24,24-24s24,10.8,24,24S365.3,152,352,152z M416,152
		c-13.2,0-24-10.8-24-24s10.8-24,24-24s24,10.8,24,24S429.3,152,416,152z"/>
</g>
<g>
	<path class="st1" d="M385.8,331.1c10.2-5.6,23-2.5,29.4,7.3l0.8,1.4l76.7,138.4c5.9,10.7,2.1,24.3-8.7,30.2c-2.8,1.6-6,2.5-9.2,2.7
		l-1.5,0.1H319.9c-12.3,0-22.2-9.9-22.2-22.2c0-3.2,0.7-6.4,2.1-9.4l0.7-1.4l76.7-138.4C379.1,336.2,382.1,333.2,385.8,331.1z
		 M396.5,461.8c-5.4-0.2-10,4.1-10.2,9.6c-0.2,5.4,4.1,10,9.6,10.2c0.2,0,0.4,0,0.6,0c5.4-0.2,9.7-4.7,9.6-10.2
		C405.9,466.1,401.7,461.9,396.5,461.8z M396.5,382.7c-5,0-9.2,3.8-9.8,8.7l0,1.1V442l0.1,1.2c0.6,5.4,5.5,9.3,10.9,8.7
		c4.6-0.5,8.2-4.1,8.7-8.7l0.1-1.2v-49.4l-0.1-1.2C405.8,386.4,401.5,382.7,396.5,382.7L396.5,382.7z"/>
</g>
</svg>
