<?xml version="1.0" encoding="utf-8"?>
<!-- Generator: Adobe Illustrator 26.3.1, SVG Export Plug-In . SVG Version: 6.00 Build 0)  -->
<!DOCTYPE svg PUBLIC "-//W3C//DTD SVG 1.1//EN" "http://www.w3.org/Graphics/SVG/1.1/DTD/svg11.dtd" [
	<!ENTITY ns_extend "http://ns.adobe.com/Extensibility/1.0/">
	<!ENTITY ns_ai "http://ns.adobe.com/AdobeIllustrator/10.0/">
	<!ENTITY ns_graphs "http://ns.adobe.com/Graphs/1.0/">
	<!ENTITY ns_vars "http://ns.adobe.com/Variables/1.0/">
	<!ENTITY ns_imrep "http://ns.adobe.com/ImageReplacement/1.0/">
	<!ENTITY ns_sfw "http://ns.adobe.com/SaveForWeb/1.0/">
	<!ENTITY ns_custom "http://ns.adobe.com/GenericCustomNamespace/1.0/">
	<!ENTITY ns_adobe_xpath "http://ns.adobe.com/XPath/1.0/">
]>
<svg version="1.1" id="Layer_1" xmlns:x="&ns_extend;" xmlns:i="&ns_ai;" xmlns:graph="&ns_graphs;"
	 xmlns="http://www.w3.org/2000/svg" xmlns:xlink="http://www.w3.org/1999/xlink" x="0px" y="0px" viewBox="0 0 512 512"
	 style="enable-background:new 0 0 512 512;" xml:space="preserve">
<style type="text/css">
	.st0{fill:#3B3B3B;}
	.st1{fill:#AA1920;}
</style>
<metadata>
	<sfw  xmlns="&ns_sfw;">
		<slices></slices>
		<sliceSourceBounds  bottomLeftOrigin="true" height="480.5" width="512" x="0" y="-0.5"></sliceSourceBounds>
	</sfw>
</metadata>
<path class="st0" d="M480,32H32C14.4,32,0,46.4,0,64v128c0,17.6,14.4,32,32,32h448c17.6,0,32-14.4,32-32V64
	C512,46.4,497.6,32,480,32z M352,152c-13.2,0-24-10.8-24-24s10.8-24,24-24s24,10.8,24,24S365.3,152,352,152z M416,152
	c-13.2,0-24-10.8-24-24s10.8-24,24-24s24,10.8,24,24S429.3,152,416,152z"/>
<path class="st0" d="M312,420.9c0-57.4,46.6-104,104-104c43.2,0,80.3,26.4,96,64V320c0-17.6-14.4-32-32-32H32c-17.6,0-32,14.4-32,32
	v128c0,17.6,14.4,32,32,32h298.4C318.8,463.2,312,442.9,312,420.9z"/>
<g>
	<path class="st1" d="M325.6,421.1c0-50.5,40.9-91.4,91.4-91.4s91.4,40.9,91.4,91.4s-40.9,91.4-91.4,91.4S325.6,471.6,325.6,421.1z
		 M454.3,383.9c-2.5-2.5-6.7-2.5-9.2,0l-28,28l-28-28c-2.5-2.6-6.6-2.7-9.2-0.2s-2.7,6.6-0.2,9.2c0.1,0.1,0.1,0.1,0.2,0.2l28,28
		l-28,28c-2.6,2.5-2.7,6.6-0.2,9.2s6.6,2.7,9.2,0.2c0.1-0.1,0.1-0.1,0.2-0.2l28-28l28,28c2.6,2.5,6.7,2.4,9.2-0.2
		c2.4-2.5,2.4-6.5,0-9.1l-28-28l28-28C456.8,390.6,456.8,386.4,454.3,383.9z"/>
</g>
</svg>
