<?xml version="1.0" encoding="utf-8"?>
<!-- Generator: Adobe Illustrator 26.3.1, SVG Export Plug-In . SVG Version: 6.00 Build 0)  -->
<!DOCTYPE svg PUBLIC "-//W3C//DTD SVG 1.1//EN" "http://www.w3.org/Graphics/SVG/1.1/DTD/svg11.dtd" [
	<!ENTITY ns_extend "http://ns.adobe.com/Extensibility/1.0/">
	<!ENTITY ns_ai "http://ns.adobe.com/AdobeIllustrator/10.0/">
	<!ENTITY ns_graphs "http://ns.adobe.com/Graphs/1.0/">
	<!ENTITY ns_vars "http://ns.adobe.com/Variables/1.0/">
	<!ENTITY ns_imrep "http://ns.adobe.com/ImageReplacement/1.0/">
	<!ENTITY ns_sfw "http://ns.adobe.com/SaveForWeb/1.0/">
	<!ENTITY ns_custom "http://ns.adobe.com/GenericCustomNamespace/1.0/">
	<!ENTITY ns_adobe_xpath "http://ns.adobe.com/XPath/1.0/">
]>
<svg version="1.1" id="Layer_1" xmlns:x="&ns_extend;" xmlns:i="&ns_ai;" xmlns:graph="&ns_graphs;"
	 xmlns="http://www.w3.org/2000/svg" xmlns:xlink="http://www.w3.org/1999/xlink" x="0px" y="0px" viewBox="0 0 2560 512"
	 style="enable-background:new 0 0 2560 512;" xml:space="preserve">
<style type="text/css">
	.st0{fill:#3B3B3B;}
	.st1{fill:#A79F56;}
	.st2{fill:#8A3635;}
	.st3{fill:#35617D;}
</style>
<metadata>
	<sfw  xmlns="&ns_sfw;">
		<slices></slices>
		<sliceSourceBounds  bottomLeftOrigin="true" height="16475.7" width="3517.1" x="-1981.1" y="-8029"></sliceSourceBounds>
	</sfw>
</metadata>
<g>
	<path class="st0" d="M869.9,360.7l18.2-32.9c2.2-3.9,5.4-7.1,9.3-9.3c11-6.1,24.7-2.6,31.6,7.9l0.9,1.5l80.9,146
		c8-5.8,13.2-15.3,13.2-25.9V320c0-17.6-14.4-32-32-32H544c-17.6,0-32,14.4-32,32v128c0,17.6,14.4,32,32,32h260.3
		c0.2-0.7,0.5-1.3,0.8-1.9l0.8-1.5l41.7-75.2"/>
	<path class="st0" d="M992,32H544c-17.6,0-32,14.4-32,32v128c0,17.6,14.4,32,32,32h448c17.6,0,32-14.4,32-32V64
		C1024,46.4,1009.6,32,992,32z M864,152c-13.2,0-24-10.8-24-24s10.8-24,24-24s24,10.8,24,24S877.3,152,864,152z M928,152
		c-13.2,0-24-10.8-24-24s10.8-24,24-24s24,10.8,24,24S941.3,152,928,152z"/>
</g>
<g>
	<path class="st1" d="M897.8,331.1c10.2-5.6,23-2.5,29.4,7.3l0.8,1.4l76.7,138.4c5.9,10.7,2.1,24.3-8.7,30.2c-2.8,1.6-6,2.5-9.2,2.7
		l-1.5,0.1H831.9c-12.3,0-22.2-9.9-22.2-22.2c0-3.2,0.7-6.4,2.1-9.4l0.7-1.4l76.7-138.4C891.1,336.2,894.1,333.2,897.8,331.1z
		 M908.5,461.8c-5.4-0.2-10,4.1-10.2,9.6c-0.2,5.4,4.1,10,9.6,10.2c0.2,0,0.4,0,0.6,0c5.4-0.2,9.7-4.7,9.6-10.2
		C917.9,466.1,913.7,461.9,908.5,461.8z M908.5,382.7c-5,0-9.2,3.8-9.8,8.7l0,1.1V442l0.1,1.2c0.6,5.4,5.5,9.3,10.9,8.7
		c4.6-0.5,8.2-4.1,8.7-8.7l0.1-1.2v-49.4l-0.1-1.2C917.8,386.4,913.5,382.7,908.5,382.7L908.5,382.7z"/>
</g>
<path class="st0" d="M1504,32h-448c-17.6,0-32,14.4-32,32v128c0,17.6,14.4,32,32,32h448c17.6,0,32-14.4,32-32V64
	C1536,46.4,1521.6,32,1504,32z M1376,152c-13.2,0-24-10.8-24-24s10.8-24,24-24c13.2,0,24,10.8,24,24S1389.3,152,1376,152z M1440,152
	c-13.2,0-24-10.8-24-24s10.8-24,24-24c13.2,0,24,10.8,24,24S1453.3,152,1440,152z"/>
<path class="st0" d="M1336,420.9c0-57.4,46.6-104,104-104c43.2,0,80.3,26.4,96,64V320c0-17.6-14.4-32-32-32h-448
	c-17.6,0-32,14.4-32,32v128c0,17.6,14.4,32,32,32h298.4C1342.8,463.2,1336,442.9,1336,420.9z"/>
<g>
	<path class="st2" d="M1349.6,421.1c0-50.5,40.9-91.4,91.4-91.4s91.4,40.9,91.4,91.4s-40.9,91.4-91.4,91.4
		S1349.6,471.6,1349.6,421.1z M1478.3,383.9c-2.5-2.5-6.7-2.5-9.2,0l-28,28l-28-28c-2.5-2.6-6.6-2.7-9.2-0.2
		c-2.6,2.5-2.7,6.6-0.2,9.2c0.1,0.1,0.1,0.1,0.2,0.2l28,28l-28,28c-2.6,2.5-2.7,6.6-0.2,9.2s6.6,2.7,9.2,0.2
		c0.1-0.1,0.1-0.1,0.2-0.2l28-28l28,28c2.6,2.5,6.7,2.4,9.2-0.2c2.4-2.5,2.4-6.5,0-9.1l-28-28l28-28
		C1480.8,390.6,1480.8,386.4,1478.3,383.9z"/>
</g>
<path class="st0" d="M2016,32h-448c-17.6,0-32,14.4-32,32v128c0,17.6,14.4,32,32,32h448c17.6,0,32-14.4,32-32V64
	C2048,46.4,2033.6,32,2016,32z M1888,152c-13.2,0-24-10.8-24-24s10.8-24,24-24c13.2,0,24,10.8,24,24S1901.3,152,1888,152z M1952,152
	c-13.2,0-24-10.8-24-24s10.8-24,24-24c13.2,0,24,10.8,24,24S1965.3,152,1952,152z"/>
<path class="st0" d="M1848,420.9c0-57.4,46.6-104,104-104c43.2,0,80.3,26.4,96,64V320c0-17.6-14.4-32-32-32h-448
	c-17.6,0-32,14.4-32,32v128c0,17.6,14.4,32,32,32h298.4C1854.8,463.2,1848,442.9,1848,420.9z"/>
<g>
	<path class="st3" d="M1953,328.7c50.5,0,91.4,40.9,91.4,91.4s-40.9,91.4-91.4,91.4s-91.4-40.9-91.4-91.4S1902.5,328.7,1953,328.7z
		 M1947,362.4c-3.3,0-6,2.7-6,6v57.7c0,3.3,2.7,6,6,6h38.5c3.3,0,6-2.7,6-6s-2.7-6-6-6H1953v-51.7
		C1953,365.1,1950.3,362.4,1947,362.4z"/>
</g>
<path class="st0" d="M480,288H32c-17.6,0-32,14.4-32,32v128c0,17.6,14.4,32,32,32h448c17.6,0,32-14.4,32-32V320
	C512,302.4,497.6,288,480,288z M352,408c-13.2,0-24-10.8-24-24s10.8-24,24-24s24,10.8,24,24S365.3,408,352,408z M416,408
	c-13.2,0-24-10.8-24-24s10.8-24,24-24s24,10.8,24,24S429.3,408,416,408z M480,32H32C14.4,32,0,46.4,0,64v128c0,17.6,14.4,32,32,32
	h448c17.6,0,32-14.4,32-32V64C512,46.4,497.6,32,480,32z M352,152c-13.2,0-24-10.8-24-24s10.8-24,24-24s24,10.8,24,24
	S365.3,152,352,152z M416,152c-13.2,0-24-10.8-24-24s10.8-24,24-24s24,10.8,24,24S429.3,152,416,152z"/>
</svg>
