<?xml version="1.0" encoding="utf-8"?>
<!-- Generator: Adobe Illustrator 26.3.1, SVG Export Plug-In . SVG Version: 6.00 Build 0)  -->
<svg version="1.1" id="Layer_1" xmlns="http://www.w3.org/2000/svg" xmlns:xlink="http://www.w3.org/1999/xlink" x="0px" y="0px"
	 viewBox="0 0 640 640" style="enable-background:new 0 0 640 640;" xml:space="preserve">
<style type="text/css">
	.st0{fill:#3B3B3B;}
</style>
<path class="st0" d="M414.8,104.8l-128,448c-4.9,17-22.6,26.8-39.6,22c-17-4.9-26.8-22.6-22-39.6l128-448c4.9-17,22.6-26.8,39.6-22
	C409.8,70.1,419.6,87.8,414.8,104.8L414.8,104.8z M518.6,185.4l112,112c12.5,12.5,12.5,32.7,0,45.2l-112,112
	c-12.5,12.5-32.7,12.5-45.2,0s-12.5-32.7,0-45.2l89.3-89.4l-89.3-89.4c-12.5-12.5-12.5-32.7,0-45.2
	C485.9,172.9,506.1,172.9,518.6,185.4L518.6,185.4z M166.6,230.6L77.3,320l89.4,89.4c12.5,12.5,12.5,32.7,0,45.2s-32.7,12.5-45.2,0
	l-112-112c-12.5-12.5-12.5-32.7,0-45.2l112-112c12.5-12.5,32.7-12.5,45.2,0C179.1,197.9,179.1,218.1,166.6,230.6L166.6,230.6z"/>
</svg>
