<?xml version="1.0" encoding="utf-8"?>
<!-- Generator: Adobe Illustrator 26.3.1, SVG Export Plug-In . SVG Version: 6.00 Build 0)  -->
<svg version="1.1" id="Layer_1" xmlns="http://www.w3.org/2000/svg" xmlns:xlink="http://www.w3.org/1999/xlink" x="0px" y="0px"
	 viewBox="0 0 50 50" style="enable-background:new 0 0 50 50;" xml:space="preserve">
<style type="text/css">
	.st0{clip-path:url(#SVGID_00000018226067785897575210000009859612208685183125_);}
	.st1{fill:#3B3B3B;}
</style>
<g>
	<defs>
		<rect id="SVGID_1_" x="0.1" y="13" width="293" height="24"/>
	</defs>
	<clipPath id="SVGID_00000044867074560917037390000005802601398214315441_">
		<use xlink:href="#SVGID_1_"  style="overflow:visible;"/>
	</clipPath>
	<g style="clip-path:url(#SVGID_00000044867074560917037390000005802601398214315441_);">
		<path class="st1" d="M25.9,33.8c-1-0.1-2.1-0.2-3-0.5c-0.2,0-0.8-0.3-1-0.4c-3.1-1.4-5.2-4.4-5.2-8c0-4.8,4-8.8,8.9-8.8
			c4.9,0,8.8,3.9,8.9,8.7h3.2C37.8,18.3,32.3,13,25.7,13c-6.7,0-12.1,5.4-12.1,12c0,4.5,2.6,8.5,6.4,10.5c0.7,0.4,1.7,0.7,2,0.8
			c1.1,0.3,2.4,0.5,3.6,0.6c0.4,0,1.8,0,2.2,0h22.2v-3.2H27.8C27.5,33.8,26.2,33.8,25.9,33.8z M27.8,28.8c-0.2,0-1.5,0-1.7,0
			c-0.4,0-0.9-0.1-1.3-0.2c-0.4-0.1-0.8-0.2-1-0.3c-1.2-0.6-2-1.9-2-3.3c0-2.1,1.7-3.8,3.8-3.8c2.1,0,3.8,1.6,3.8,3.7h3.1
			c-0.1-3.7-3.1-6.7-6.9-6.7c-3.8,0-6.9,3.1-6.9,6.8c0,2.7,1.5,5,3.8,6.1c0.3,0.2,1,0.4,1.2,0.5c0.6,0.2,1.5,0.3,2.2,0.3
			c0.3,0,1.5,0,1.8,0v0h22.2v-3.1H27.8z M11.6,37H8.4V16.2H3.6V13h8V37z M0.1,17.8v3.1h3.6V37h3.1V17.8H0.1z"/>
	</g>
</g>
</svg>
