<?xml version="1.0" encoding="utf-8"?>
<!-- Generator: Adobe Illustrator 26.3.1, SVG Export Plug-In . SVG Version: 6.00 Build 0)  -->
<svg version="1.1" id="Layer_1" xmlns="http://www.w3.org/2000/svg" xmlns:xlink="http://www.w3.org/1999/xlink" x="0px" y="0px"
	 viewBox="0 0 20 20" style="enable-background:new 0 0 20 20;" xml:space="preserve">
<style type="text/css">
	.st0{fill:#3B3B3B;}
</style>
<path class="st0" d="M0.2,4.9c0-1.4,1.1-2.5,2.5-2.5h14.8c1.4,0,2.5,1.1,2.5,2.5v8.6c0,1-0.6,1.8-1.4,2.2c-0.1-0.2-0.2-0.3-0.3-0.5
	l-0.5-0.5c0.6-0.1,1.1-0.6,1.1-1.2V4.9c0-0.7-0.6-1.2-1.2-1.2H2.6C2,3.6,1.4,4.2,1.4,4.9v8.6c0,0.7,0.6,1.2,1.2,1.2h6.2V16H2.6
	c-1.4,0-2.5-1.1-2.5-2.5V4.9z M11.1,10c-0.2-0.2-0.6-0.2-0.9,0c-0.1,0.1-0.2,0.3-0.2,0.4V19c0,0.3,0.3,0.6,0.6,0.6
	c0.2,0,0.4-0.1,0.5-0.3l1.9-2.8l3.6,0.6c0.3,0.1,0.7-0.2,0.7-0.5c0-0.2,0-0.4-0.2-0.5C17.2,16.1,11.1,10,11.1,10z M11.3,17.1v-5.2
	l3.8,3.8l-2.1-0.3c-0.2,0-0.5,0.1-0.6,0.3L11.3,17.1L11.3,17.1z"/>
<g>
	<polygon class="st0" points="3.1,6.1 4.7,6.1 4.7,12.8 5.7,12.8 5.7,5.1 3.1,5.1 	"/>
	<polygon class="st0" points="4.1,12.8 4.1,6.6 2,6.6 2,7.6 3.1,7.6 3.1,12.8 	"/>
	<polygon class="st0" points="13,11.2 18.1,11.2 18.1,10.2 12,10.2 	"/>
	<polygon class="st0" points="18.1,11.8 13.6,11.8 14.6,12.8 18.1,12.8 	"/>
	<path class="st0" d="M9.5,11.7c0,0-0.1,0-0.1,0c-0.1,0-0.3-0.1-0.3-0.1c-1-0.4-1.7-1.4-1.7-2.6c0-1.6,1.3-2.8,2.9-2.8
		c1.6,0,2.8,1.2,2.9,2.8h1c0-2.1-1.8-3.8-3.9-3.8C8.1,5.1,6.4,6.8,6.4,9c0,1.5,0.8,2.7,2.1,3.4c0.2,0.1,0.5,0.2,0.6,0.3
		c0.1,0,0.3,0.1,0.5,0.1V11.7z"/>
	<path class="st0" d="M10.3,6.8C9,6.8,8,7.7,8,9c0,0.9,0.5,1.6,1.2,2C9.3,11,9.4,11,9.5,11v-0.6c0-0.1,0-0.3,0.1-0.4
		C9.3,9.8,9,9.4,9,9c0-0.7,0.6-1.2,1.2-1.2c0.7,0,1.2,0.5,1.2,1.2h1C12.5,7.7,11.5,6.8,10.3,6.8z"/>
</g>
</svg>
