<?xml version="1.0" encoding="utf-8"?>
<!-- Generator: Adobe Illustrator 26.3.1, SVG Export Plug-In . SVG Version: 6.00 Build 0)  -->
<svg version="1.1" id="Layer_1" xmlns="http://www.w3.org/2000/svg" xmlns:xlink="http://www.w3.org/1999/xlink" x="0px" y="0px"
	 viewBox="0 0 32 32" style="enable-background:new 0 0 32 32;" xml:space="preserve">
<style type="text/css">
	.st0{fill:#3B3B3B;}
</style>
<circle class="st0" cx="9" cy="6" r="1"/>
<path class="st0" d="M26,10H6c-1.1,0-2-0.9-2-2V4c0-1.1,0.9-2,2-2h20c1.1,0,2,0.9,2,2v4C28,9.1,27.1,10,26,10z M6,4v4h20V4H6z"/>
<circle class="st0" cx="9" cy="16" r="1"/>
<path class="st0" d="M26,20H6c-1.1,0-2-0.9-2-2v-4c0-1.1,0.9-2,2-2h20c1.1,0,2,0.9,2,2v4C28,19.1,27.1,20,26,20z M6,14v4h20v-4H6z"
	/>
<circle class="st0" cx="9" cy="26" r="1"/>
<path class="st0" d="M26,30H6c-1.1,0-2-0.9-2-2v-4c0-1.1,0.9-2,2-2h20c1.1,0,2,0.9,2,2v4C28,29.1,27.1,30,26,30z M6,24v4h20v-4H6z"
	/>
</svg>
