<?xml version="1.0" encoding="utf-8"?>
<!-- Generator: Adobe Illustrator 26.3.1, SVG Export Plug-In . SVG Version: 6.00 Build 0)  -->
<!DOCTYPE svg PUBLIC "-//W3C//DTD SVG 1.1//EN" "http://www.w3.org/Graphics/SVG/1.1/DTD/svg11.dtd" [
	<!ENTITY ns_extend "http://ns.adobe.com/Extensibility/1.0/">
	<!ENTITY ns_ai "http://ns.adobe.com/AdobeIllustrator/10.0/">
	<!ENTITY ns_graphs "http://ns.adobe.com/Graphs/1.0/">
	<!ENTITY ns_vars "http://ns.adobe.com/Variables/1.0/">
	<!ENTITY ns_imrep "http://ns.adobe.com/ImageReplacement/1.0/">
	<!ENTITY ns_sfw "http://ns.adobe.com/SaveForWeb/1.0/">
	<!ENTITY ns_custom "http://ns.adobe.com/GenericCustomNamespace/1.0/">
	<!ENTITY ns_adobe_xpath "http://ns.adobe.com/XPath/1.0/">
]>
<svg version="1.1" id="Layer_1" xmlns:x="&ns_extend;" xmlns:i="&ns_ai;" xmlns:graph="&ns_graphs;"
	 xmlns="http://www.w3.org/2000/svg" xmlns:xlink="http://www.w3.org/1999/xlink" x="0px" y="0px" viewBox="0 0 20.1 20.1"
	 style="enable-background:new 0 0 20.1 20.1;" xml:space="preserve">
<style type="text/css">
	.st0{fill:#3B3B3B;}
</style>
<metadata>
	<sfw  xmlns="&ns_sfw;">
		<slices></slices>
		<sliceSourceBounds  bottomLeftOrigin="true" height="20" width="16.5" x="4" y="2"></sliceSourceBounds>
	</sfw>
</metadata>
<g>
	<path class="st0" d="M9.5,7.6C9.4,7.8,9.2,7.9,9,8L7.5,8.2l1.1,1c0.2,0.2,0.2,0.4,0.2,0.6l-0.2,1.4l1.3-0.7c0.2-0.1,0.4-0.1,0.6,0
		l1.3,0.7l-0.2-1.4c0-0.2,0-0.4,0.2-0.6l1.1-1L11.3,8c-0.2,0-0.4-0.2-0.5-0.4l-0.7-1.3L9.5,7.6z M1.9,2.6c0-1.4,1.1-2.5,2.5-2.5
		h11.5c1.4,0,2.5,1.1,2.5,2.5v14.2c0,0.4-0.3,0.8-0.8,0.8H3.4c0,0.6,0.4,1,1,1h13.2c0.4,0,0.8,0.3,0.8,0.8s-0.3,0.8-0.8,0.8H4.4
		c-1.4,0-2.5-1.1-2.5-2.5V2.6z M8.4,6.7L6,7C5.6,7.1,5.3,7.4,5.4,7.8c0,0.1,0.1,0.3,0.2,0.4l1.8,1.7l-0.4,2.4
		c-0.1,0.4,0.2,0.7,0.6,0.8c0.1,0,0.3,0,0.4-0.1l2.2-1.2l2.2,1.2c0.3,0.2,0.7,0,0.9-0.3c0.1-0.1,0.1-0.3,0.1-0.4l-0.4-2.4l1.8-1.7
		c0.3-0.3,0.3-0.7,0-1c-0.1-0.1-0.2-0.2-0.4-0.2l-2.5-0.4l-1.1-2.2C10.6,4.1,10.2,4,9.8,4.1C9.7,4.2,9.6,4.3,9.5,4.5
		C9.5,4.5,8.4,6.7,8.4,6.7z"/>
</g>
</svg>
