<?xml version="1.0" encoding="utf-8"?>
<!-- Generator: Adobe Illustrator 26.3.1, SVG Export Plug-In . SVG Version: 6.00 Build 0)  -->
<svg version="1.1" id="Layer_1" xmlns="http://www.w3.org/2000/svg" xmlns:xlink="http://www.w3.org/1999/xlink" x="0px" y="0px"
	 viewBox="0 0 24 24" style="enable-background:new 0 0 24 24;" xml:space="preserve">
<style type="text/css">
	.st0{fill:#3B3B3B;}
</style>
<path class="st0" d="M6.1,19.2l0.3,2.5L8.2,20l3.1-8.5c-0.8-0.2-1.4-0.6-2-1.1C9.3,10.4,6.1,19.2,6.1,19.2z M15.6,10.4
	c-0.6,0.5-1.2,0.9-2,1.1l3.1,8.5l1.8,1.7l0.3-2.5C18.8,19.2,15.6,10.4,15.6,10.4z M15.8,7.1c0-1.5-0.9-2.7-2.2-3.2V1.5h-2.2V4
	C10,4.4,9.1,5.7,9.1,7.1c0,1.9,1.5,3.4,3.4,3.4S15.8,9,15.8,7.1z M12.4,8.2c-0.6,0-1.1-0.5-1.1-1.1S11.8,6,12.4,6
	c0.6,0,1.1,0.5,1.1,1.1S13.1,8.2,12.4,8.2z M15.6,10.4c-0.6,0.5-1.2,0.9-2,1.1l3.1,8.5l1.8,1.7l0.3-2.5
	C18.8,19.2,15.6,10.4,15.6,10.4z"/>
<path d="M12.3,17.7l-4.3-4.2l-3.3-3.3c-0.4-0.4-1-0.5-1.3-0.2l-1.8,1.8c-0.3,0.3-0.2,0.9,0.2,1.3L4.6,16l1.7,1.7l3.5,3.5l0.5,0.5
	l1.4,1.4c0.3,0.3,0.9,0.2,1.3-0.2l4.6-4.6h0l4-4c0.4-0.4,0.5-1,0.2-1.3l-1.8-1.8c-0.3-0.3-0.9-0.2-1.3,0.2l-4.4,4.4L12.3,17.7
	 M21.2,13.9l-4.8,4.8l-3.8,3.8c-0.1,0.1-0.5,0.3-0.6,0.2l-1.3-1.4c0,0,0,0,0,0c0,0,0,0,0,0l-4.2-4.2v0L2,12.7
	c-0.1-0.1-0.2-0.3-0.1-0.4l1.8-1.8c0.1-0.1,0.3-0.1,0.4,0.1L4.7,11l-0.6,0.6c-0.1,0.1-0.1,0.3,0.1,0.4c0.1,0.1,0.3,0.2,0.4,0.1
	l0.6-0.6L6,12.2L5,13.1c-0.1,0.1-0.1,0.3,0.1,0.4c0.1,0.1,0.3,0.2,0.4,0.1l0.9-0.9l0.7,0.7L6.6,14c-0.1,0.1-0.1,0.3,0.1,0.4
	s0.3,0.2,0.4,0.1l0.6-0.6l0.6,0.6l-0.9,0.9c-0.1,0.1-0.1,0.3,0.1,0.4C7.5,16,7.7,16,7.8,15.9L8.7,15l0.7,0.7l-0.6,0.6
	c-0.1,0.1-0.1,0.3,0.1,0.4c0.1,0.1,0.3,0.2,0.4,0.1l0.6-0.6l0.7,0.7l-0.9,0.9c-0.1,0.1-0.1,0.3,0.1,0.4c0.1,0.1,0.3,0.2,0.4,0.1
	l0.9-0.9l0.7,0.7c0.1,0.1,0.3,0.2,0.3,0.3c0.1-0.1,0.3-0.3,0.4-0.4l0.7-0.7l0.6,0.6c0.1,0.1,0.3,0.1,0.4-0.1
	c0.1-0.1,0.2-0.3,0.1-0.4l-0.6-0.6l0.6-0.6l0.9,0.9c0.1,0.1,0.3,0.1,0.4-0.1s0.2-0.3,0.1-0.4l-0.9-0.9l0.7-0.7l0.6,0.6
	c0.1,0.1,0.3,0.1,0.4-0.1s0.2-0.3,0.1-0.4l-0.6-0.6l0.7-0.7l0.9,0.9c0.1,0.1,0.3,0.1,0.4-0.1s0.2-0.3,0.1-0.4l-0.9-0.9l0.7-0.7
	l0.6,0.6c0.1,0.1,0.3,0.1,0.4-0.1s0.2-0.3,0.1-0.4l-0.6-0.6l0.5-0.5c0.1-0.1,0.3-0.2,0.4-0.1l1.8,1.8C21.4,13.6,21.3,13.7,21.2,13.9
	z"/>
</svg>
