<?xml version="1.0" encoding="utf-8"?>
<!-- Generator: Adobe Illustrator 26.3.1, SVG Export Plug-In . SVG Version: 6.00 Build 0)  -->
<svg version="1.1" id="Layer_1" xmlns="http://www.w3.org/2000/svg" xmlns:xlink="http://www.w3.org/1999/xlink" x="0px" y="0px"
	 viewBox="0 0 24 24" style="enable-background:new 0 0 24 24;" xml:space="preserve">
<style type="text/css">
	.st0{fill:#3B3B3B;}
</style>
<path class="st0" d="M6.1,19.2l0.3,2.5L8.2,20l3.1-8.5c-0.8-0.2-1.4-0.6-2-1.1C9.3,10.4,6.1,19.2,6.1,19.2z M15.6,10.4
	c-0.6,0.5-1.2,0.9-2,1.1l3.1,8.5l1.8,1.7l0.3-2.5L15.6,10.4z M15.8,7.1c0-1.5-0.9-2.7-2.2-3.2V1.5h-2.2V4C10,4.4,9.1,5.7,9.1,7.1
	c0,1.9,1.5,3.4,3.4,3.4S15.8,9,15.8,7.1z M12.4,8.2c-0.6,0-1.1-0.5-1.1-1.1S11.8,6,12.4,6c0.6,0,1.1,0.5,1.1,1.1S13.1,8.2,12.4,8.2z
	 M15.6,10.4c-0.6,0.5-1.2,0.9-2,1.1l3.1,8.5l1.8,1.7l0.3-2.5L15.6,10.4z"/>
</svg>
