<?xml version="1.0" encoding="utf-8"?>
<!-- Generator: Adobe Illustrator 26.3.1, SVG Export Plug-In . SVG Version: 6.00 Build 0)  -->
<svg version="1.1" id="Layer_1" xmlns="http://www.w3.org/2000/svg" xmlns:xlink="http://www.w3.org/1999/xlink" x="0px" y="0px"
	 viewBox="0 0 24 24" style="enable-background:new 0 0 24 24;" xml:space="preserve">
<style type="text/css">
	.st0{fill:#3B3B3B;}
</style>
<path class="st0" d="M5.3,20.6l0.3,2.8l2-1.9l3.5-9.6c-0.9-0.2-1.6-0.6-2.2-1.2C8.9,10.6,5.3,20.6,5.3,20.6z M15.9,10.6
	c-0.6,0.6-1.4,1-2.2,1.2l3.5,9.6l2,1.9l0.3-2.8C19.6,20.6,15.9,10.6,15.9,10.6z M16.2,6.9c0-1.6-1.1-3-2.5-3.6V0.6h-2.5v2.8
	C9.7,3.9,8.6,5.3,8.6,6.9c0,2.1,1.7,3.8,3.8,3.8S16.2,9,16.2,6.9z M12.4,8.2c-0.7,0-1.3-0.6-1.3-1.3s0.6-1.3,1.3-1.3
	s1.3,0.6,1.3,1.3S13.1,8.2,12.4,8.2z"/>
<g>
	<path class="st0" d="M7,13.8c-0.1,0.1-0.1,0.3,0.1,0.4c0,0,0,0,0,0l0.3-0.8L7,13.8z"/>
	<path class="st0" d="M17.5,13.5l0.3,0.8c0,0,0,0,0,0c0.1-0.1,0.2-0.3,0.1-0.4L17.5,13.5z"/>
	<path class="st0" d="M14.8,16.3l-0.4-1l-2,2l-2-2l-0.4,1l0.3-0.3l0.7,0.7l-0.9,0.9c-0.1,0.1-0.1,0.3,0.1,0.4
		c0.1,0.1,0.3,0.2,0.4,0.1l0.9-0.9l0.7,0.7c0.1,0.1,0.1,0.1,0.2,0.2c0.1-0.1,0.1-0.1,0.2-0.2l0.7-0.7l0.9,0.9
		c0.1,0.1,0.3,0.1,0.4-0.1c0.1-0.1,0.2-0.3,0.1-0.4l-0.9-0.9l0.7-0.7L14.8,16.3z"/>
	<path class="st0" d="M6.3,16.4l-3.9-3.9c-0.1-0.1-0.2-0.3-0.1-0.4l1.8-1.8c0.1-0.1,0.3-0.1,0.4,0.1l0.5,0.5l-0.6,0.6
		c-0.1,0.1-0.1,0.3,0.1,0.4C4.8,12,4.9,12,5,11.9l0.6-0.6l0.7,0.7L5.4,13c-0.1,0.1-0.1,0.3,0.1,0.4c0.1,0.1,0.3,0.2,0.4,0.1l0.9-0.9
		l0.6,0.6l0.2-0.5L5,10C4.6,9.6,4,9.5,3.7,9.8l-1.8,1.8C1.6,12,1.6,12.5,2,12.9l4,4L6.3,16.4z"/>
	<path class="st0" d="M23,11.7l-1.8-1.8c-0.3-0.3-0.9-0.2-1.3,0.2l-2.7,2.7l0.2,0.5l0.7-0.7l0.9,0.9c0.1,0.1,0.3,0.1,0.4-0.1
		c0.1-0.1,0.2-0.3,0.1-0.4l-0.9-0.9l0.7-0.7l0.6,0.6c0.1,0.1,0.3,0.1,0.4-0.1c0.1-0.1,0.2-0.3,0.1-0.4l-0.6-0.6l0.5-0.5
		c0.1-0.1,0.3-0.2,0.4-0.1l1.8,1.8c0.1,0.1,0.1,0.3-0.1,0.4l-3.9,3.9l0.2,0.5l4-4C23.2,12.5,23.3,12,23,11.7z"/>
	<path class="st0" d="M15.9,19.2l-2,2c0,0,0,0,0,0c0,0,0,0,0,0l-1.3,1.4c0,0,0,0-0.1,0c0,0-0.1,0-0.1,0L11,21.2c0,0,0,0,0,0
		c0,0,0,0,0,0l-2-2l-0.2,0.5l3.2,3.2c0.1,0.1,0.3,0.2,0.4,0.2c0.2,0,0.3-0.1,0.4-0.2l3.2-3.2L15.9,19.2z"/>
</g>
</svg>
