<?xml version="1.0" encoding="utf-8"?>
<!-- Generator: Adobe Illustrator 26.3.1, SVG Export Plug-In . SVG Version: 6.00 Build 0)  -->
<!DOCTYPE svg PUBLIC "-//W3C//DTD SVG 1.1//EN" "http://www.w3.org/Graphics/SVG/1.1/DTD/svg11.dtd" [
	<!ENTITY ns_extend "http://ns.adobe.com/Extensibility/1.0/">
	<!ENTITY ns_ai "http://ns.adobe.com/AdobeIllustrator/10.0/">
	<!ENTITY ns_graphs "http://ns.adobe.com/Graphs/1.0/">
	<!ENTITY ns_vars "http://ns.adobe.com/Variables/1.0/">
	<!ENTITY ns_imrep "http://ns.adobe.com/ImageReplacement/1.0/">
	<!ENTITY ns_sfw "http://ns.adobe.com/SaveForWeb/1.0/">
	<!ENTITY ns_custom "http://ns.adobe.com/GenericCustomNamespace/1.0/">
	<!ENTITY ns_adobe_xpath "http://ns.adobe.com/XPath/1.0/">
]>
<svg version="1.1" id="Layer_1" xmlns:x="&ns_extend;" xmlns:i="&ns_ai;" xmlns:graph="&ns_graphs;"
	 xmlns="http://www.w3.org/2000/svg" xmlns:xlink="http://www.w3.org/1999/xlink" x="0px" y="0px" viewBox="0 0 540.3 540.3"
	 style="enable-background:new 0 0 540.3 540.3;" xml:space="preserve">
<style type="text/css">
	.st0{fill:#3B3B3B;}
</style>
<metadata>
	<sfw  xmlns="&ns_sfw;">
		<slices></slices>
		<sliceSourceBounds  bottomLeftOrigin="true" height="448" width="448" x="46.2" y="32"></sliceSourceBounds>
	</sfw>
</metadata>
<path class="st0" d="M421.2,494.2h-222c-40.3,0-73-32.7-73-73v-222c0-40.3,32.7-73,73-73h222c40.3,0,73,32.7,73,73v222
	C494.2,461.4,461.4,494.2,421.2,494.2z M199.2,158.2c-22.6,0-41,18.4-41,41v222c0,22.6,18.4,41,41,41h222c22.6,0,41-18.4,41-41v-222
	c0-22.6-18.4-41-41-41H199.2z"/>
<path class="st0" d="M142.2,414.2h-24c-39.6-0.1-71.9-32.4-72-72v-216c0.1-44,36-79.9,80-80h216c39.6,0.1,71.9,32.4,72,72
	c0,0.1,0,0.3,0,0.4l-0.5,24c-0.2,8.8-7.5,15.9-16.3,15.7c-8.8-0.2-15.8-7.5-15.7-16.3l0.5-23.8c-0.2-21.9-18.1-39.8-40-39.9h-216
	c-26.4,0.1-47.9,21.6-48,48v216c0.1,22,18,39.9,40,40h24c8.8,0,16,7.2,16,16S151,414.2,142.2,414.2z"/>
</svg>
