<?xml version="1.0" encoding="utf-8"?>
<!-- Generator: Adobe Illustrator 26.3.1, SVG Export Plug-In . SVG Version: 6.00 Build 0)  -->
<!DOCTYPE svg PUBLIC "-//W3C//DTD SVG 1.1//EN" "http://www.w3.org/Graphics/SVG/1.1/DTD/svg11.dtd" [
	<!ENTITY ns_extend "http://ns.adobe.com/Extensibility/1.0/">
	<!ENTITY ns_ai "http://ns.adobe.com/AdobeIllustrator/10.0/">
	<!ENTITY ns_graphs "http://ns.adobe.com/Graphs/1.0/">
	<!ENTITY ns_vars "http://ns.adobe.com/Variables/1.0/">
	<!ENTITY ns_imrep "http://ns.adobe.com/ImageReplacement/1.0/">
	<!ENTITY ns_sfw "http://ns.adobe.com/SaveForWeb/1.0/">
	<!ENTITY ns_custom "http://ns.adobe.com/GenericCustomNamespace/1.0/">
	<!ENTITY ns_adobe_xpath "http://ns.adobe.com/XPath/1.0/">
]>
<svg version="1.1" id="Layer_1" xmlns:x="&ns_extend;" xmlns:i="&ns_ai;" xmlns:graph="&ns_graphs;"
	 xmlns="http://www.w3.org/2000/svg" xmlns:xlink="http://www.w3.org/1999/xlink" x="0px" y="0px" viewBox="0 0 24 24"
	 style="enable-background:new 0 0 24 24;" xml:space="preserve">
<style type="text/css">
	.st0{fill:#3B3B3B;}
</style>
<metadata>
	<sfw  xmlns="&ns_sfw;">
		<slices></slices>
		<sliceSourceBounds  bottomLeftOrigin="true" height="21" width="19" x="4" y="1"></sliceSourceBounds>
	</sfw>
</metadata>
<g>
	<path class="st0" d="M4,6c0-0.7,0.3-1.3,0.8-1.8C5.2,3.7,5.9,3.3,6.6,3C8,2.4,9.9,2,12,2s4,0.4,5.4,1c0.7,0.3,1.3,0.7,1.8,1.2
		C19.7,4.7,20,5.3,20,6v6.3c-0.4-0.4-1-0.7-1.5-0.9v-3c-0.3,0.2-0.7,0.4-1.1,0.6c-1.4,0.6-3.4,1-5.4,1S8,9.6,6.6,9
		C6.2,8.8,5.8,8.6,5.5,8.4V18c0,0.2,0.1,0.5,0.4,0.8c0.3,0.3,0.7,0.6,1.3,0.9c1.2,0.5,2.9,0.9,4.8,0.9c0.2,0,0.5,0,0.7,0
		c0.6,0.6,1.3,1,2.1,1.3C14,21.9,13,22,12,22c-2.1,0-4-0.4-5.4-1c-0.7-0.3-1.3-0.7-1.8-1.2C4.3,19.3,4,18.7,4,18V6z M5.5,6
		c0,0.2,0.1,0.5,0.4,0.8C6.1,7,6.6,7.3,7.2,7.6c1.2,0.5,2.9,0.9,4.8,0.9s3.6-0.4,4.8-0.9c0.6-0.3,1-0.6,1.3-0.9
		c0.3-0.3,0.4-0.5,0.4-0.8s-0.1-0.5-0.4-0.8c-0.3-0.3-0.7-0.6-1.3-0.9c-1.2-0.5-2.9-0.9-4.8-0.9c-1.9,0-3.6,0.3-4.8,0.9
		C6.6,4.7,6.1,5,5.9,5.2C5.6,5.5,5.5,5.8,5.5,6z M16.5,21c0.9,0,1.8-0.3,2.6-0.8l2.6,2.6c0.3,0.3,0.8,0.3,1.1,0s0.3-0.8,0-1.1
		c0,0,0,0,0,0l-2.6-2.6c1.4-2,1-4.8-1.1-6.3s-4.8-1-6.3,1.1s-1,4.8,1.1,6.3C14.7,20.7,15.6,21,16.5,21z M16.5,19.5c-1.7,0-3-1.3-3-3
		s1.3-3,3-3s3,1.3,3,3S18.2,19.5,16.5,19.5z"/>
</g>
</svg>
