<?xml version="1.0" encoding="utf-8"?>
<!-- Generator: Adobe Illustrator 26.3.1, SVG Export Plug-In . SVG Version: 6.00 Build 0)  -->
<!DOCTYPE svg PUBLIC "-//W3C//DTD SVG 1.1//EN" "http://www.w3.org/Graphics/SVG/1.1/DTD/svg11.dtd" [
	<!ENTITY ns_extend "http://ns.adobe.com/Extensibility/1.0/">
	<!ENTITY ns_ai "http://ns.adobe.com/AdobeIllustrator/10.0/">
	<!ENTITY ns_graphs "http://ns.adobe.com/Graphs/1.0/">
	<!ENTITY ns_vars "http://ns.adobe.com/Variables/1.0/">
	<!ENTITY ns_imrep "http://ns.adobe.com/ImageReplacement/1.0/">
	<!ENTITY ns_sfw "http://ns.adobe.com/SaveForWeb/1.0/">
	<!ENTITY ns_custom "http://ns.adobe.com/GenericCustomNamespace/1.0/">
	<!ENTITY ns_adobe_xpath "http://ns.adobe.com/XPath/1.0/">
]>
<svg version="1.1" id="Layer_1" xmlns:x="&ns_extend;" xmlns:i="&ns_ai;" xmlns:graph="&ns_graphs;"
	 xmlns="http://www.w3.org/2000/svg" xmlns:xlink="http://www.w3.org/1999/xlink" x="0px" y="0px" viewBox="0 0 1024 1024"
	 style="enable-background:new 0 0 1024 1024;" xml:space="preserve">
<style type="text/css">
	.st0{fill:#3B3B3B;}
</style>
<metadata>
	<sfw  xmlns="&ns_sfw;">
		<slices></slices>
		<sliceSourceBounds  bottomLeftOrigin="true" height="768" width="768" x="127.9" y="128.1"></sliceSourceBounds>
	</sfw>
</metadata>
<path class="st0" d="M832.6,191.4c-84.6-84.6-221.5-84.6-306,0l-96.9,96.9l51,51l96.9-96.9c53.8-53.8,144.6-59.5,204,0
	c59.5,59.5,53.8,150.2,0,204l-96.9,96.9l51.1,51.1l96.9-96.9C917.1,412.9,917.1,276,832.6,191.4L832.6,191.4z M446.5,781.6
	c-53.8,53.8-144.6,59.5-204,0c-59.5-59.5-53.8-150.2,0-204l96.9-96.9l-51.1-51.1l-96.9,96.9c-84.6,84.6-84.6,221.5,0,306
	s221.5,84.6,306,0l96.9-96.9l-51-51L446.5,781.6z M260.3,209.4c-3.1-3.1-8.2-3.1-11.3,0L209.4,249c-3.1,3.1-3.1,8.2,0,11.3
	l554.4,554.4c3.1,3.1,8.2,3.1,11.3,0l39.6-39.6c3.1-3.1,3.1-8.2,0-11.3L260.3,209.4z"/>
</svg>
