<?xml version="1.0" encoding="utf-8"?>
<!-- Generator: Adobe Illustrator 26.3.1, SVG Export Plug-In . SVG Version: 6.00 Build 0)  -->
<!DOCTYPE svg PUBLIC "-//W3C//DTD SVG 1.1//EN" "http://www.w3.org/Graphics/SVG/1.1/DTD/svg11.dtd" [
	<!ENTITY ns_extend "http://ns.adobe.com/Extensibility/1.0/">
	<!ENTITY ns_ai "http://ns.adobe.com/AdobeIllustrator/10.0/">
	<!ENTITY ns_graphs "http://ns.adobe.com/Graphs/1.0/">
	<!ENTITY ns_vars "http://ns.adobe.com/Variables/1.0/">
	<!ENTITY ns_imrep "http://ns.adobe.com/ImageReplacement/1.0/">
	<!ENTITY ns_sfw "http://ns.adobe.com/SaveForWeb/1.0/">
	<!ENTITY ns_custom "http://ns.adobe.com/GenericCustomNamespace/1.0/">
	<!ENTITY ns_adobe_xpath "http://ns.adobe.com/XPath/1.0/">
]>
<svg version="1.1" id="Layer_1" xmlns:x="&ns_extend;" xmlns:i="&ns_ai;" xmlns:graph="&ns_graphs;"
	 xmlns="http://www.w3.org/2000/svg" xmlns:xlink="http://www.w3.org/1999/xlink" x="0px" y="0px" viewBox="0 0 850.4 850.4"
	 style="enable-background:new 0 0 850.4 850.4;" xml:space="preserve">
<style type="text/css">
	.st0{fill:#3B3B3B;}
</style>
<metadata>
	<sfw  xmlns="&ns_sfw;">
		<slices></slices>
		<sliceSourceBounds  bottomLeftOrigin="true" height="688.8" width="712" x="141.2" y="163.8"></sliceSourceBounds>
	</sfw>
</metadata>
<path class="st0" d="M291.1,462.4c-0.4,0.5-1,1.2-1.1,2l-35.8,131.3c-2.1,7.7,0.1,16,5.7,21.7c4.3,4.1,9.8,6.4,15.8,6.4
	c2,0,3.9-0.2,5.9-0.8L412,587.5c0.2,0,0.3,0.2,0.4,0.2c1.5,0,2.9-0.5,4-1.6l348.8-348.6c10.4-10.3,16-24.5,16-39.9
	c0-17.4-7.4-34.9-20.4-47.7l-32.9-33c-13-13-30.4-20.4-47.7-20.4c-15.4,0-29.5,5.7-39.9,16L291.7,461.3
	C291.3,461.5,291.5,462,291.1,462.4L291.1,462.4z M731.1,203.2l-34.6,34.6l-56.1-57.1l34.1-34.1c5.4-5.4,15.9-4.7,22,1.6l33,33
	c3.5,3.5,5.4,8,5.4,12.5C734.9,197.4,733.6,200.8,731.1,203.2L731.1,203.2z M353.1,467.9l251.7-251.7l56.2,57.1L409.8,524.5
	L353.1,467.9 M307.4,569.9l18.2-66.8l48.5,48.5L307.4,569.9 M753.2,341.3c-13.2,0-24.1,10.8-24.1,24.1v325.1
	c0,17-13.8,30.9-30.9,30.9H148.3c-17,0-30.9-13.8-30.9-30.9V159.9c0-17.1,13.9-30.9,30.9-30.9h354.2c13.3,0,24.1-10.8,24.1-24.1
	s-10.8-24.1-24.1-24.1H144.6c-41.5,0-75.4,33.8-75.4,75.4v537.9c0,41.7,33.8,75.5,75.4,75.5h557.3c41.6,0,75.4-33.8,75.4-75.4V365.3
	C777.2,352.1,766.4,341.3,753.2,341.3L753.2,341.3z"/>
</svg>
