<?xml version="1.0" encoding="utf-8"?>
<!-- Generator: Adobe Illustrator 26.3.1, SVG Export Plug-In . SVG Version: 6.00 Build 0)  -->
<!DOCTYPE svg PUBLIC "-//W3C//DTD SVG 1.1//EN" "http://www.w3.org/Graphics/SVG/1.1/DTD/svg11.dtd" [
	<!ENTITY ns_extend "http://ns.adobe.com/Extensibility/1.0/">
	<!ENTITY ns_ai "http://ns.adobe.com/AdobeIllustrator/10.0/">
	<!ENTITY ns_graphs "http://ns.adobe.com/Graphs/1.0/">
	<!ENTITY ns_vars "http://ns.adobe.com/Variables/1.0/">
	<!ENTITY ns_imrep "http://ns.adobe.com/ImageReplacement/1.0/">
	<!ENTITY ns_sfw "http://ns.adobe.com/SaveForWeb/1.0/">
	<!ENTITY ns_custom "http://ns.adobe.com/GenericCustomNamespace/1.0/">
	<!ENTITY ns_adobe_xpath "http://ns.adobe.com/XPath/1.0/">
]>
<svg version="1.1" id="Layer_1" xmlns:x="&ns_extend;" xmlns:i="&ns_ai;" xmlns:graph="&ns_graphs;"
	 xmlns="http://www.w3.org/2000/svg" xmlns:xlink="http://www.w3.org/1999/xlink" x="0px" y="0px" viewBox="0 0 1024 1024"
	 style="enable-background:new 0 0 1024 1024;" xml:space="preserve">
<style type="text/css">
	.st0{fill:#3B3B3B;}
</style>
<metadata>
	<sfw  xmlns="&ns_sfw;">
		<slices></slices>
		<sliceSourceBounds  bottomLeftOrigin="true" height="768.4" width="789.9" x="134.2" y="126.6"></sliceSourceBounds>
	</sfw>
</metadata>
<path class="st0" d="M834.3,705.7c0,82.2-66.8,149-149,149H325.9c-82.2,0-149-66.8-149-149V346.4c0-82.2,66.8-149,149-149h129.8
	v-42.7H325.9c-105.7,0-191.7,86-191.7,191.7v359.3c0,105.7,86,191.7,191.7,191.7h359.3c105.7,0,191.7-86,191.7-191.7V575.9h-42.7
	v129.8H834.3z"/>
<path class="st0" d="M889.7,163.4c-22.9-22.9-53-34.4-83.1-34.4s-60.1,11.5-83.1,34.4L312,574.9c-16.9,16.9-27.9,38.8-31.2,62.5
	l-19,132.8c-1.6,11.4,7.3,21.3,18.4,21.3c0.9,0,1.8-0.1,2.7-0.2l132.8-19c23.7-3.4,45.6-14.3,62.5-31.2l411.5-411.5
	C935.6,283.7,935.6,209.3,889.7,163.4L889.7,163.4z M362,585.3L710.3,237L816,342.8L467.8,691.1L362,585.3z M409.7,730l-101.1,14.4
	L323,643.3c1.4-9.5,4.8-18.7,9.9-26.7L436.3,720C428.3,725.2,419.2,728.7,409.7,730L409.7,730z M859.5,299.3l-13.3,13.3L740.5,206.8
	l13.3-13.3c14.1-14.1,32.9-21.9,52.9-21.9s38.8,7.8,52.9,21.9C888.7,222.7,888.7,270.2,859.5,299.3L859.5,299.3z"/>
</svg>
