<?xml version="1.0" encoding="utf-8"?>
<!-- Generator: Adobe Illustrator 26.3.1, SVG Export Plug-In . SVG Version: 6.00 Build 0)  -->
<!DOCTYPE svg PUBLIC "-//W3C//DTD SVG 1.1//EN" "http://www.w3.org/Graphics/SVG/1.1/DTD/svg11.dtd" [
	<!ENTITY ns_extend "http://ns.adobe.com/Extensibility/1.0/">
	<!ENTITY ns_ai "http://ns.adobe.com/AdobeIllustrator/10.0/">
	<!ENTITY ns_graphs "http://ns.adobe.com/Graphs/1.0/">
	<!ENTITY ns_vars "http://ns.adobe.com/Variables/1.0/">
	<!ENTITY ns_imrep "http://ns.adobe.com/ImageReplacement/1.0/">
	<!ENTITY ns_sfw "http://ns.adobe.com/SaveForWeb/1.0/">
	<!ENTITY ns_custom "http://ns.adobe.com/GenericCustomNamespace/1.0/">
	<!ENTITY ns_adobe_xpath "http://ns.adobe.com/XPath/1.0/">
]>
<svg version="1.1" id="Layer_1" xmlns:x="&ns_extend;" xmlns:i="&ns_ai;" xmlns:graph="&ns_graphs;"
	 xmlns="http://www.w3.org/2000/svg" xmlns:xlink="http://www.w3.org/1999/xlink" x="0px" y="0px" viewBox="0 0 1024 1024"
	 style="enable-background:new 0 0 1024 1024;" xml:space="preserve">
<style type="text/css">
	.st0{fill:#3B3B3B;}
</style>
<metadata>
	<sfw  xmlns="&ns_sfw;">
		<slices></slices>
		<sliceSourceBounds  bottomLeftOrigin="true" height="688.8" width="712" x="146" y="167.6"></sliceSourceBounds>
	</sfw>
</metadata>
<path class="st0" d="M367.9,549.2c-0.4,0.5-1,1.2-1.1,2L331,682.5c-2.1,7.7,0.1,16,5.7,21.7c4.3,4.1,9.8,6.4,15.8,6.4
	c2,0,3.9-0.2,5.9-0.8l130.4-35.5c0.2,0,0.3,0.2,0.4,0.2c1.5,0,2.9-0.5,4-1.6L842,324.3c10.4-10.3,16-24.5,16-39.9
	c0-17.4-7.4-34.9-20.4-47.7l-32.9-33c-13-13-30.4-20.4-47.7-20.4c-15.4,0-29.5,5.7-39.9,16L368.5,548.1
	C368.1,548.3,368.3,548.8,367.9,549.2L367.9,549.2z M807.9,290l-34.6,34.6l-56.1-57.1l34.1-34.1c5.4-5.4,15.9-4.7,22,1.6l33,33
	c3.5,3.5,5.4,8,5.4,12.5C811.7,284.2,810.4,287.6,807.9,290L807.9,290z M429.9,554.7L681.6,303l56.2,57.1L486.6,611.3L429.9,554.7
	 M384.2,656.7l18.2-66.8l48.5,48.5L384.2,656.7 M830,428.1c-13.2,0-24.1,10.8-24.1,24.1v325.1c0,17-13.8,30.9-30.9,30.9H225.1
	c-17,0-30.9-13.8-30.9-30.9V246.7c0-17.1,13.9-30.9,30.9-30.9h354.2c13.3,0,24.1-10.8,24.1-24.1c0-13.3-10.8-24.1-24.1-24.1H221.4
	c-41.5,0-75.4,33.8-75.4,75.4v537.9c0,41.7,33.8,75.5,75.4,75.5h557.3c41.6,0,75.4-33.8,75.4-75.4V452.1
	C854,438.9,843.2,428.1,830,428.1L830,428.1z"/>
</svg>
