<svg class="svg-icon" style="width: 1em; height: 1em;vertical-align: middle;fill: currentColor;overflow: hidden;" viewBox="0 0 1024 1024" version="1.1" xmlns="http://www.w3.org/2000/svg"><path d="M678.854949 37.925925 151.913033 37.925925C67.776878 37.925925 0 105.939719 0 189.838987L0 872.086938C0 956.223137 68.013787 1024 151.913033 1024L834.161006 1024C918.297234 1024 986.074039 955.986205 986.074039 872.086938L986.074039 352.876954 910.22219 428.728803 910.22219 872.086938C910.22219 914.194593 876.305262 948.148151 834.161006 948.148151L151.913033 948.148151C109.805422 948.148151 75.851849 914.231172 75.851849 872.086938L75.851849 189.838987C75.851849 147.731332 109.76885 113.777781 151.913033 113.777781L603.003099 113.777781 678.854949 37.925925ZM320.679497 698.854934 550.775881 633.528042 386.423442 470.180586 320.679497 698.854934ZM935.236535 251.412619 770.882048 88.063035 409.297774 447.421923 573.650213 610.755591 935.236535 251.412619ZM1011.623351 114.198462 908.897353 12.111338C891.877742-4.806437 863.36629-3.885305 845.211136 14.152038L795.896832 63.146942 960.252416 226.495459 1009.563575 177.485707C1027.718729 159.447296 1028.639817 131.118358 1011.623351 114.198462Z"  /></svg>