<?xml version="1.0" encoding="utf-8"?>
<!-- Generator: Adobe Illustrator 26.3.1, SVG Export Plug-In . SVG Version: 6.00 Build 0)  -->
<svg version="1.1" id="Layer_1" xmlns="http://www.w3.org/2000/svg" xmlns:xlink="http://www.w3.org/1999/xlink" x="0px" y="0px"
	 viewBox="0 0 1024 1024" style="enable-background:new 0 0 1024 1024;" xml:space="preserve">
<style type="text/css">
	.st0{fill:#3B3B3B;}
</style>
<path class="st0" d="M312.1,591.5c3.1,3.1,8.2,3.1,11.3,0l101.8-101.8l86.1,86.2c3.1,3.1,8.2,3.1,11.3,0l226.3-226.5
	c3.1-3.1,3.1-8.2,0-11.3l-36.8-36.8c-3.1-3.1-8.2-3.1-11.3,0L517,485.3l-86.1-86.2c-3.1-3.1-8.2-3.1-11.3,0L275.3,543.4
	c-3.1,3.1-3.1,8.2,0,11.3L312.1,591.5L312.1,591.5z"/>
<path class="st0" d="M904,160H548V96c0-4.4-3.6-8-8-8h-56c-4.4,0-8,3.6-8,8v64H120c-17.7,0-32,14.3-32,32v520c0,17.7,14.3,32,32,32
	h356.4v32L311.6,884.1c-3.7,2.4-4.7,7.3-2.3,11l30.3,47.2v0.1c2.4,3.7,7.4,4.7,11.1,2.3L512,838.9l161.3,105.8
	c3.7,2.4,8.7,1.4,11.1-2.3v-0.1l30.3-47.2c2.4-3.7,1.3-8.6-2.3-11L548,776.3V744h356c17.7,0,32-14.3,32-32V192
	C936,174.3,921.7,160,904,160z M864,672H160V232h704V672z"/>
</svg>
