<svg class="svg-icon" style="width: 1em; height: 1em;vertical-align: middle;fill: currentColor;overflow: hidden;" viewBox="0 0 1024 1024" version="1.1" xmlns="http://www.w3.org/2000/svg"><path d="M1024 384 640 384 783.53 240.47C711 167.944 614.57 128 512 128 409.43 128 313 167.944 240.47 240.47 167.944 313 128 409.43 128 512 128 614.57 167.944 711 240.47 783.53 313 856.056 409.43 896 512 896 614.57 896 711 856.056 783.528 783.528 789.584 777.474 795.388 771.236 800.984 764.86L897.304 849.142C803.458 956.308 665.64 1024 512 1024 229.23 1024 0 794.77 0 512 0 229.23 229.23 0 512 0 653.386 0 781.368 57.326 874.016 149.984L1024 0 1024 384Z"  /></svg>