<?xml version="1.0" encoding="utf-8"?>
<!-- Generator: Adobe Illustrator 26.3.1, SVG Export Plug-In . SVG Version: 6.00 Build 0)  -->
<!DOCTYPE svg PUBLIC "-//W3C//DTD SVG 1.1//EN" "http://www.w3.org/Graphics/SVG/1.1/DTD/svg11.dtd" [
	<!ENTITY ns_extend "http://ns.adobe.com/Extensibility/1.0/">
	<!ENTITY ns_ai "http://ns.adobe.com/AdobeIllustrator/10.0/">
	<!ENTITY ns_graphs "http://ns.adobe.com/Graphs/1.0/">
	<!ENTITY ns_vars "http://ns.adobe.com/Variables/1.0/">
	<!ENTITY ns_imrep "http://ns.adobe.com/ImageReplacement/1.0/">
	<!ENTITY ns_sfw "http://ns.adobe.com/SaveForWeb/1.0/">
	<!ENTITY ns_custom "http://ns.adobe.com/GenericCustomNamespace/1.0/">
	<!ENTITY ns_adobe_xpath "http://ns.adobe.com/XPath/1.0/">
]>
<svg version="1.1" id="Layer_1" xmlns:x="&ns_extend;" xmlns:i="&ns_ai;" xmlns:graph="&ns_graphs;"
	 xmlns="http://www.w3.org/2000/svg" xmlns:xlink="http://www.w3.org/1999/xlink" x="0px" y="0px" viewBox="0 0 1024 1024"
	 style="enable-background:new 0 0 1024 1024;" xml:space="preserve">
<style type="text/css">
	.st0{fill:#3B3B3B;}
</style>
<metadata>
	<sfw  xmlns="&ns_sfw;">
		<slices></slices>
		<sliceSourceBounds  bottomLeftOrigin="true" height="840" width="820.1" x="102" y="92"></sliceSourceBounds>
	</sfw>
</metadata>
<path class="st0" d="M909.1,209.3l-56.4,44.1C775.8,155.1,656.2,92,521.9,92C290,92,102.3,279.5,102,511.5
	C101.7,743.7,289.8,932,521.9,932c181.3,0,335.8-115,394.6-276.1c1.5-4.2-0.7-8.9-4.9-10.3l-56.7-19.5c-4.1-1.4-8.6,0.7-10.1,4.8
	c-1.8,5-3.8,10-5.9,14.9c-17.3,41-42.1,77.8-73.7,109.4c-31.6,31.6-68.4,56.4-109.3,73.8c-42.3,17.9-87.4,27-133.8,27
	c-46.5,0-91.5-9.1-133.8-27c-40.9-17.3-77.7-42.1-109.3-73.8c-31.6-31.6-56.4-68.4-73.7-109.4c-17.9-42.4-27-87.4-27-133.9
	s9.1-91.5,27-133.9c17.3-41,42.1-77.8,73.7-109.4s68.4-56.4,109.3-73.8c42.3-17.9,87.4-27,133.8-27c46.5,0,91.5,9.1,133.8,27
	c40.9,17.3,77.7,42.1,109.3,73.8c9.9,9.9,19.2,20.4,27.8,31.4l-60.2,47c-5.3,4.1-3.5,12.5,3,14.1l175.6,43c5,1.2,9.9-2.6,9.9-7.7
	l0.8-180.9C922,208.9,914.3,205.2,909.1,209.3L909.1,209.3z"/>
</svg>
