<?xml version="1.0" encoding="utf-8"?>
<!-- Generator: Adobe Illustrator 26.3.1, SVG Export Plug-In . SVG Version: 6.00 Build 0)  -->
<!DOCTYPE svg PUBLIC "-//W3C//DTD SVG 1.1//EN" "http://www.w3.org/Graphics/SVG/1.1/DTD/svg11.dtd" [
	<!ENTITY ns_extend "http://ns.adobe.com/Extensibility/1.0/">
	<!ENTITY ns_ai "http://ns.adobe.com/AdobeIllustrator/10.0/">
	<!ENTITY ns_graphs "http://ns.adobe.com/Graphs/1.0/">
	<!ENTITY ns_vars "http://ns.adobe.com/Variables/1.0/">
	<!ENTITY ns_imrep "http://ns.adobe.com/ImageReplacement/1.0/">
	<!ENTITY ns_sfw "http://ns.adobe.com/SaveForWeb/1.0/">
	<!ENTITY ns_custom "http://ns.adobe.com/GenericCustomNamespace/1.0/">
	<!ENTITY ns_adobe_xpath "http://ns.adobe.com/XPath/1.0/">
]>
<svg version="1.1" id="Layer_1" xmlns:x="&ns_extend;" xmlns:i="&ns_ai;" xmlns:graph="&ns_graphs;"
	 xmlns="http://www.w3.org/2000/svg" xmlns:xlink="http://www.w3.org/1999/xlink" x="0px" y="0px" viewBox="0 0 476.2 476.2"
	 style="enable-background:new 0 0 476.2 476.2;" xml:space="preserve">
<style type="text/css">
	.st0{fill:#3B3B3B;}
</style>
<metadata>
	<sfw  xmlns="&ns_sfw;">
		<slices></slices>
		<sliceSourceBounds  bottomLeftOrigin="true" height="448" width="352" x="83.1" y="31.2"></sliceSourceBounds>
	</sfw>
</metadata>
<path class="st0" d="M358.1,462.1h-240c-30.9,0-56-25.1-56-56v-192c0-30.9,25.1-56,56-56h40c8.8,0,16,7.2,16,16s-7.2,16-16,16h-40
	c-13.2,0-24,10.8-24,24v192c0,13.2,10.8,24,24,24h240c13.2,0,24-10.8,24-24v-192c0-13.2-10.8-24-24-24h-40c-8.8,0-16-7.2-16-16
	s7.2-16,16-16h40c30.9,0,56,25.1,56,56v192C414.1,437,389,462.1,358.1,462.1z"/>
<path class="st0" d="M318.1,126.1c-4.1,0-8.2-1.6-11.3-4.7l-68.7-68.7l-68.7,68.7c-6.2,6.2-16.4,6.2-22.6,0
	c-6.2-6.2-6.2-16.4,0-22.6l80-80c6.2-6.2,16.4-6.2,22.6,0l80,80c6.2,6.2,6.2,16.4,0,22.6C326.3,124.5,322.2,126.1,318.1,126.1z"/>
<path class="st0" d="M238.1,319.1c-8.8,0-16-7.2-16-16v-273c0-8.8,7.2-16,16-16c8.8,0,16,7.2,16,16v273
	C254.1,311.9,246.9,319.1,238.1,319.1z"/>
</svg>
