<?xml version="1.0" encoding="utf-8"?>
<!-- Generator: Adobe Illustrator 26.3.1, SVG Export Plug-In . SVG Version: 6.00 Build 0)  -->
<!DOCTYPE svg PUBLIC "-//W3C//DTD SVG 1.1//EN" "http://www.w3.org/Graphics/SVG/1.1/DTD/svg11.dtd" [
	<!ENTITY ns_extend "http://ns.adobe.com/Extensibility/1.0/">
	<!ENTITY ns_ai "http://ns.adobe.com/AdobeIllustrator/10.0/">
	<!ENTITY ns_graphs "http://ns.adobe.com/Graphs/1.0/">
	<!ENTITY ns_vars "http://ns.adobe.com/Variables/1.0/">
	<!ENTITY ns_imrep "http://ns.adobe.com/ImageReplacement/1.0/">
	<!ENTITY ns_sfw "http://ns.adobe.com/SaveForWeb/1.0/">
	<!ENTITY ns_custom "http://ns.adobe.com/GenericCustomNamespace/1.0/">
	<!ENTITY ns_adobe_xpath "http://ns.adobe.com/XPath/1.0/">
]>
<svg version="1.1" id="Layer_1" xmlns:x="&ns_extend;" xmlns:i="&ns_ai;" xmlns:graph="&ns_graphs;"
	 xmlns="http://www.w3.org/2000/svg" xmlns:xlink="http://www.w3.org/1999/xlink" x="0px" y="0px" viewBox="0 0 32 16"
	 style="enable-background:new 0 0 32 16;" xml:space="preserve">
<style type="text/css">
	.st0{fill:#3B3B3B;}
</style>
<metadata>
	<sfw  xmlns="&ns_sfw;">
		<slices></slices>
		<sliceSourceBounds  bottomLeftOrigin="true" height="11.2" width="11.8" x="2.1" y="2.4"></sliceSourceBounds>
	</sfw>
</metadata>
<g>
	<path class="st0" d="M18.7,8.6h3.1c0.3,0,0.6,0.3,0.6,0.6c0,0.1,0,0.2-0.1,0.3l-0.1,0.1L20,12.3h1.8c0.3,0,0.6,0.3,0.6,0.6
		c0,0.3-0.2,0.6-0.5,0.6l-0.1,0h-3.1c-0.3,0-0.6-0.3-0.6-0.6c0-0.1,0-0.2,0.1-0.3l0.1-0.1l2.3-2.7h-1.8c-0.3,0-0.6-0.3-0.6-0.6
		c0-0.3,0.2-0.6,0.5-0.6L18.7,8.6h3.1H18.7z M24.9,2.4h4.3c0.3,0,0.6,0.3,0.6,0.6c0,0.1,0,0.2-0.1,0.3l-0.1,0.1l-3.7,5.2h3.1
		c0.3,0,0.6,0.3,0.6,0.6c0,0.3-0.2,0.6-0.5,0.6l-0.1,0h-4.3c-0.3,0-0.6-0.3-0.6-0.6c0-0.1,0-0.2,0.1-0.3l0.1-0.1l3.7-5.2h-3.1
		c-0.3,0-0.6-0.3-0.6-0.6c0-0.3,0.2-0.6,0.5-0.6L24.9,2.4h4.3H24.9z"/>
</g>
</svg>
