<?xml version="1.0" encoding="utf-8"?>
<!-- Generator: Adobe Illustrator 26.3.1, SVG Export Plug-In . SVG Version: 6.00 Build 0)  -->
<svg version="1.1" id="Layer_1" xmlns="http://www.w3.org/2000/svg" xmlns:xlink="http://www.w3.org/1999/xlink" x="0px" y="0px"
	 viewBox="0 0 480 480" style="enable-background:new 0 0 480 480;" xml:space="preserve">
<style type="text/css">
	.st0{fill:#3B3B3B;}
</style>
<path class="st0" d="M416,16H64C28.7,16,0,44.7,0,80v320c0,35.3,28.7,64,64,64h352c35.3,0,64-28.7,64-64V80
	C480,44.7,451.3,16,416,16z M112.3,369c-12.4,0-22.4-10-22.4-22.4c0-6.8,3.1-13.2,8.4-17.5l90.1-72.1l-90.1-72.1
	c-9.7-7.7-11.2-21.8-3.5-31.5c7.7-9.7,21.8-11.2,31.5-3.5l112,89.6c9.7,7.7,11.2,21.8,3.5,31.5c-1,1.3-2.2,2.5-3.5,3.5l-112,89.6
	C122.3,367.2,117.3,369,112.3,369z M382,369h-45.8h-43.7h-45.8c-29.4-0.5-29.4-44.3,0-44.8c0,0,23.1,0,45.8,0c0,0,21.7,0,43.7,0
	c22.7,0,45.8,0,45.8,0c12.4,0,22.4,10,22.4,22.4C404.4,359,394.4,369,382,369z"/>
</svg>
