<?xml version="1.0" encoding="utf-8"?>
<!-- Generator: Adobe Illustrator 26.3.1, SVG Export Plug-In . SVG Version: 6.00 Build 0)  -->
<svg version="1.1" id="Layer_1" xmlns="http://www.w3.org/2000/svg" xmlns:xlink="http://www.w3.org/1999/xlink" x="0px" y="0px"
	 viewBox="0 0 640 640" style="enable-background:new 0 0 640 640;" xml:space="preserve">
<style type="text/css">
	.st0{fill:#3B3B3B;}
</style>
<path class="st0" d="M224,320c70.7,0,128-57.3,128-128S294.7,64,224,64S96,121.3,96,192S153.3,320,224,320z M274.7,368H173.3
	C77.6,368,0,445.6,0,541.3C0,560.5,15.5,576,34.7,576h378.6c19.2,0,34.7-15.5,34.7-34.7C448,445.6,370.4,368,274.7,368z M479.1,384
	h-73.9c46,37.7,74.8,94.1,74.8,157.3c0,12.8-3.8,24.6-10,34.7h138c17.7,0,32-14.4,32-32.9C640,455.6,568.4,384,479.1,384z M432,320
	c61.9,0,112-50.1,112-112S493.9,96,432,96c-25.1,0-48,8.6-66.7,22.5c11.5,22.1,18.7,46.9,18.7,73.5c0,35.5-11.9,68.1-31.6,94.7
	C372.7,307.2,400.8,320,432,320z"/>
</svg>
