<?xml version="1.0" encoding="utf-8"?>
<!-- Generator: Adobe Illustrator 26.3.1, SVG Export Plug-In . SVG Version: 6.00 Build 0)  -->
<svg version="1.1" id="Layer_1" xmlns="http://www.w3.org/2000/svg" xmlns:xlink="http://www.w3.org/1999/xlink" x="0px" y="0px"
	 viewBox="0 0 512 512" style="enable-background:new 0 0 512 512;" xml:space="preserve">
<style type="text/css">
	.st0{fill:#3B3B3B;}
</style>
<path class="st0" d="M480,336V48c0-26.5-21.5-48-48-48H128C75,0,32,43,32,96v320c0,53,43,96,96,96h320c17.7,0,32-14.3,32-31.1
	c0-11.7-6.6-21.5-16-27.1v-81.4C473.8,362.8,480,350.2,480,336z M175.1,128h192c9.7,0,16.9,7.2,16.9,16s-7.2,16-16,16H175.1
	c-7.9,0-15.1-7.2-15.1-16S167.2,128,175.1,128z M175.1,192h192c9.7,0,16.9,7.2,16.9,16s-7.2,16-16,16H175.1c-7.9,0-15.1-7.2-15.1-16
	S167.2,192,175.1,192z M416,448H128c-17.7,0-32-14.3-32-32s14.3-32,32-32h288V448z"/>
</svg>
