<?xml version="1.0" encoding="utf-8"?>
<!-- Generator: Adobe Illustrator 26.3.1, SVG Export Plug-In . SVG Version: 6.00 Build 0)  -->
<svg version="1.1" id="Layer_1" xmlns="http://www.w3.org/2000/svg" xmlns:xlink="http://www.w3.org/1999/xlink" x="0px" y="0px"
	 viewBox="0 0 512 512" style="enable-background:new 0 0 512 512;" xml:space="preserve">
<style type="text/css">
	.st0{fill:#3B3B3B;}
</style>
<path class="st0" d="M495.4,35.5c22.1,22.1,22.1,57.9,0,80l-30.3,30.4l-99-99l30.4-30.4c22.1-22.1,57.9-22.1,80,0L495.4,35.5z
	 M174.2,238.9l169-169.1l99,99l-169.1,169c-6.2,6.3-13.7,10.9-22.1,13.7l-89.7,29.9c-9.6,2.8-18.3,0.6-24.9-6.8
	c-6.5-5.7-8.7-15.3-5.9-23.9l29.9-89.7C163.3,252.6,167.9,245.1,174.2,238.9L174.2,238.9z M194,58.4c17.9,0,32.3,15.4,32.3,32.3
	c0,18.8-14.4,32.3-32.3,32.3H97c-17.9,0-32.3,15.4-32.3,32.3V415c0,17.9,14.5,32.3,32.3,32.3h258.7c17.9,0,32.3-14.4,32.3-32.3
	v-97.9c0-17,14.4-32.3,32.3-32.3c17.9,0,32.3,15.4,32.3,32.3V415c0,53.5-43.4,97-97,97H97c-53.6,0-97-43.4-97-97V155.4
	c0-53.5,43.4-97,97-97H194z"/>
</svg>
