<?xml version="1.0" encoding="utf-8"?>
<!-- Generator: Adobe Illustrator 26.3.1, SVG Export Plug-In . SVG Version: 6.00 Build 0)  -->
<svg version="1.1" id="Layer_1" xmlns="http://www.w3.org/2000/svg" xmlns:xlink="http://www.w3.org/1999/xlink" x="0px" y="0px"
	 viewBox="0 0 576 576" style="enable-background:new 0 0 576 576;" xml:space="preserve">
<path d="M562.5,271.8L510,180.8c1.1-2.2,2-4.8,2-7.6c0-8.4-7-15.4-15.4-15.7L438.4,57.1c0.6-1.7,1.1-3.4,1.1-5.1c0-9-7.3-16-16-16
	c-5.1,0-9.3,2.2-12.4,5.9H299.5c-2.8-3.6-7-5.9-12.1-5.9s-9.3,2.2-12.1,5.9H164.2c-3.1-3.6-7.3-5.9-12.4-5.9c-8.7,0-16,7-16,16
	c0,1.7,0.6,3.6,1.1,5.1L78.3,158.9c-5.6,2.5-9.5,7.9-9.5,14.3c0,0.6,0.3,1.1,0.3,1.7l-55.9,96.6C5.6,272.9,0,279.4,0,287.2
	c0,7.6,5.3,14,12.6,15.7l57.8,99.9c-0.6,1.7-0.8,3.1-0.8,5.1c0,7.6,5.3,14,12.6,15.4l54.2,94c-0.6,1.7-1.1,3.6-1.1,5.6
	c0,9,7.3,16,16,16c5.1,0,9.3-2.2,12.1-5.6h112c2.8,3.4,7.3,5.6,12.1,5.6s9.3-2.2,12.1-5.6h112.3c2.8,3.1,7,5.1,11.5,5.1
	c9,0,16-7.3,16-16c0-1.7-0.3-3.1-0.8-4.5l54.2-94.6c7.3-1.4,12.6-7.9,12.6-15.4c0-1.7-0.3-3.4-0.8-5.1l57.5-99.9
	c7.3-1.4,12.9-7.9,12.9-15.7C574.9,279.6,569.5,273.2,562.5,271.8z M146.5,491.6l-45.8-79.4h45.8V491.6z M146.5,403.7h-45.8
	c-0.3-1.1-0.8-2.2-1.4-3.4l47.2-49.7V403.7z M146.5,338.3l-52.8,55.9c-1.4-0.6-2.8-1.4-4.2-1.7l-58.4-101c0.6-1.4,0.6-2.8,0.6-4.2
	s0-2.5-0.3-3.6l54.5-94.3c2.8-0.3,5.6-1.1,8.1-2.8l52.5,54.5L146.5,338.3L146.5,338.3z M146.5,231.1l-48-49.7
	c1.4-2.2,2.2-5.1,2.2-8.1c0-0.3-0.3-0.8-0.3-1.1l46-16.6V231.1z M146.5,146.6l-45.8,16.6L146.5,84V146.6z M488.7,187.6l0.8,1.4
	l-37.1,175.2l-66.8-70.5l102.7-106.4L488.7,187.6z M291.4,391.4l12.1,12.4h-23.9L291.4,391.4z M291.1,379.6L203.8,290l83.4-88.4
	l87,91.8L291.1,379.6z M296.7,385.7l83.1-86.2l70.7,74.7l-6.2,29.5h-130L296.7,385.7z M415.7,65.8c1.1,0.6,2.2,1.1,3.6,1.4
	L480,172.7v0.6c0,3.1,0.8,5.9,2.2,8.1L380.1,287.5l-87-91.8L415.7,65.8z M406.2,63.5l-119,126l-59.8-63.2l174.3-62.9H406.2
	L406.2,63.5z M276.8,63.5c2.8,2.8,6.5,4.5,10.7,4.5s7.9-1.7,10.7-4.5h78.6l-155.5,56.1l-53.3-56.1H276.8z M154.9,69.4l1.1-2.2
	c0.9-0.2,1.9-0.5,2.8-0.8l53.6,56.4l-57.5,20.8V69.4z M154.9,152.5l63.7-23l62.6,66.2l-83.4,88.1l-42.9-44.1
	C154.9,239.8,154.9,152.5,154.9,152.5z M154.9,249.6l38.2,39.6l-38.2,40.1L154.9,249.6L154.9,249.6z M154.9,341.7l44.1-46.6
	l86.7,90.1l-18,18.5H154.9L154.9,341.7L154.9,341.7z M162.2,511.5c-1.7-1.7-3.6-2.8-6.2-3.6l-1.1-1.7v-94h104.7l-96,99.4H162.2z
	 M298.4,511.5c-2.8-2.5-6.7-4.5-10.9-4.5c-4.2,0-8.1,2-10.9,4.5h-101l96-99.4h40.1l96,99.4H298.4L298.4,511.5z M424.1,499.1
	l-4.5,7.9c-1.4,0.3-2.5,0.8-3.6,1.4l-93.5-96.3h119.9L424.1,499.1L424.1,499.1z M437.6,475.8l13.5-63.7h23L437.6,475.8z
	 M474.1,403.7h-21.3l4.8-22.2l18,19.1C474.9,401.5,474.4,402.6,474.1,403.7L474.1,403.7z M543.4,291.1l-58.1,101.3
	c-1.4,0.6-2.8,1.1-4.2,2l-21.6-23l36.2-171.8l48,83.1c-0.3,1.4-0.8,2.8-0.8,4.5C542.9,288.6,543.1,289.7,543.4,291.1z"/>
</svg>
